<svg xmlns="http://www.w3.org/2000/svg" id="Ebene_1" width="308" height="119" data-name="Ebene 1" version="1.1"><defs id="defs299"><style id="style297">.cls-1{fill:#e53517}.cls-2{fill:#3fa3d7}.cls-3{fill:#950652}.cls-4{fill:#762b84}.cls-5{fill:#e2007a}</style></defs><path id="rect301" d="M119.045 54.813 95.064 65.996 83.88 42.015l23.981-11.183Z" class="cls-1"/><path id="rect303" d="m108.16 12.616-7.822 3.647-3.647-7.821 7.821-3.648z" class="cls-2"/><path id="path305" d="M61.295 18.954a50.22 50.22 0 1 0 33.56 72zm-11.33 74.82a25 25 0 0 1-25-25h50a25 25 0 0 1-25 25z" class="cls-3"/><path id="rect307" d="m134.267 36.756-9.3 4.336-4.335-9.298 9.299-4.336z" class="cls-2"/><path id="rect309" d="m112.059 78.217-9.299 4.336-4.336-9.299 9.299-4.336z" class="cls-4"/><path id="rect311" d="m87.764 23.905-10.124 4.72-4.72-10.123 10.123-4.72Z" class="cls-5"/><path id="rect313" d="m126.211 17.626-5.555 2.59-2.591-5.555 5.556-2.59z" class="cls-5"/><path id="rect315" d="m108.833 5.556-5.556 2.59-2.59-5.555L106.241 0z" class="cls-1"/><path id="rect317" d="m116.627 34.69-14.972 6.982L94.673 26.7l14.972-6.982Z" class="cls-4"/><path id="path319" d="M156.865 58.254h7v8.3a11 11 0 0 1-7.51 2.52c-5.52 0-9.51-4.37-9.51-9.89 0-5.52 4-9.89 9.51-9.89 4.94 0 7 2.7 7 2.7l-1.64 1.62a7.3 7.3 0 0 0-5.35-2.13c-4.15 0-7.05 3.63-7.05 7.7s2.9 7.7 7.05 7.7a8.82 8.82 0 0 0 5.29-1.38v-5h-4.78z" class="cls-3"/><path id="path321" d="M180.415 49.634h2.3v12.07c0 4.35-2.6 7.38-7 7.38s-7-3-7-7.38v-12.07h2.29v11.83c0 3.08 1.37 5.43 4.67 5.43s4.67-2.35 4.67-5.43zm-7.13-5.33a1.56 1.56 0 1 1-1.55 1.56 1.58 1.58 0 0 1 1.55-1.56zm5 0a1.56 1.56 0 1 1-1.63 1.56 1.58 1.58 0 0 1 1.58-1.56z" class="cls-3"/><path id="path323" d="M191.925 51.814h-5.49v-2.18h13.28v2.18h-5.5v16.94h-2.29z" class="cls-3"/><path id="path325" d="M205.725 57.854h8.09v2.19h-8.09v6.52h8.93v2.19h-11.2v-19.12h11v2.18h-8.74z" class="cls-3"/><path id="path327" d="M224.465 60.154c-2.78-1.29-5.24-2.57-5.24-5.82a5.23 5.23 0 0 1 5.51-5 6.8 6.8 0 0 1 5.44 2.79l-1.72 1.39a4.82 4.82 0 0 0-3.72-2 3 3 0 0 0-3.22 2.84c0 1.94 1.64 2.7 4.26 3.9 2.93 1.34 4.76 2.57 4.76 5.66 0 3.09-2.57 5.19-5.93 5.19a6.64 6.64 0 0 1-6.09-4l1.91-1.15a4.76 4.76 0 0 0 4.18 3c1.83 0 3.58-1 3.58-3s-1.59-2.82-3.72-3.8z" class="cls-3"/><path id="path329" d="M235.655 49.634h2.3v19.12h-2.3z" class="cls-3"/><path id="path331" d="M246.215 57.854h8.09v2.19h-8.09v6.52h8.91v2.19h-11.2v-19.12h11v2.18h-8.74z" class="cls-3"/><path id="path333" d="M268.655 58.254h7v8.3a11 11 0 0 1-7.51 2.52c-5.52 0-9.51-4.37-9.51-9.89 0-5.52 4-9.89 9.51-9.89 4.94 0 7 2.7 7 2.7l-1.64 1.62a7.3 7.3 0 0 0-5.35-2.13c-4.15 0-7 3.63-7 7.7s2.9 7.7 7 7.7a8.82 8.82 0 0 0 5.24-1.39v-5h-4.74z" class="cls-3"/><path id="path335" d="M282.855 57.854h8.09v2.19h-8.09v6.52h8.91v2.19h-11.2v-19.12h11v2.18h-8.71z" class="cls-3"/><path id="path337" d="M296.525 49.634h2.29v16.93h8.58v2.19h-10.87z" class="cls-3"/><path id="path339" d="M147.875 79.074h3.28v16h8.14v3.11h-11.42z" class="cls-3"/><path id="path341" d="M167.555 86.824h7.65v3.12h-7.65v5.14h8.47v3.11h-11.75v-19.12h11.58v3.11h-8.3z" class="cls-3"/><path id="path343" d="M181.925 79.074h6.28c3.8 0 6.34 2.46 6.34 6a5.53 5.53 0 0 1-4.26 5.74l4.78 7.43h-3.83l-4.53-7.21h-1.5v7.21h-3.28zm9.29 6c0-1.88-1.31-2.84-3.42-2.84h-2.59v5.68h2.59c2.11-.05 3.42-1 3.42-2.89z" class="cls-3"/><path id="path345" d="m203.535 79.074 9.56 13.18v-13.18h3.28v19.12h-2.95l-9.56-13.14v13.14h-3.28v-19.12z" class="cls-3"/><path id="path347" d="M222.035 89.884h7.3v3.12h-7.3z" class="cls-3"/><path id="path349" d="M240.565 79.074h3.33l7.43 19.12h-3.31l-1.74-4.54h-8.09l-1.75 4.54h-3.3zm-1.2 11.58h5.73l-2.87-7.46z" class="cls-3"/><path id="path351" d="M256.245 79.074h6.5a6.12 6.12 0 1 1 0 12.24h-3.22v6.88h-3.28zm9.51 6.12c0-1.81-1.18-3-3.42-3h-2.81v6h2.81c2.24 0 3.42-1.2 3.42-3z" class="cls-3"/><path id="path353" d="M274.445 79.074h6.5a6.12 6.12 0 1 1 0 12.24h-3.23v6.88h-3.27zm9.5 6.12c0-1.81-1.17-3-3.41-3h-2.82v6h2.82c2.24 0 3.41-1.2 3.41-3z" class="cls-3"/><path id="path355" d="M298.705 90.254c-2.81-1-6-2.51-6-6.06 0-2.71 2.4-5.41 6.25-5.41a8.22 8.22 0 0 1 6.23 3l-2.26 2.24a5.53 5.53 0 0 0-4-2.16c-1.64 0-2.92 1-2.92 2.3 0 1.66 1.5 2.18 4.13 3.17 2.92 1.09 5.35 2.4 5.35 5.87s-3.06 5.33-6.67 5.33a8.35 8.35 0 0 1-7-3.91l2.46-2.08s1.64 2.87 4.53 2.87c1.64 0 3.34-.65 3.34-2.21s-1.17-2.2-3.44-2.95z" class="cls-3"/><path id="rect357" d="m98.597 35.136 9.253-4.315 3.047 6.535-9.253 4.315z" style="fill:#58241f"/><path id="rect359" d="m102.215 5.867 2.293-1.07 1.06 2.275-2.292 1.07z" style="fill:#6c3927"/></svg>