<?xml version="1.0" encoding="UTF-8" standalone="no"?>
<!-- Created with Inkscape (http://www.inkscape.org/) -->

<svg
   width="44.310997mm"
   height="44.311001mm"
   viewBox="0 0 44.310997 44.311002"
   version="1.1"
   id="svg5"
   xml:space="preserve"
   inkscape:version="1.2 (dc2aedaf03, 2022-05-15)"
   sodipodi:docname="icon.svg"
   inkscape:export-filename="32.png"
   inkscape:export-xdpi="18.343075"
   inkscape:export-ydpi="18.343075"
   xmlns:inkscape="http://www.inkscape.org/namespaces/inkscape"
   xmlns:sodipodi="http://sodipodi.sourceforge.net/DTD/sodipodi-0.dtd"
   xmlns:xlink="http://www.w3.org/1999/xlink"
   xmlns="http://www.w3.org/2000/svg"
   xmlns:svg="http://www.w3.org/2000/svg"><sodipodi:namedview
     id="namedview7"
     pagecolor="#ffffff"
     bordercolor="#666666"
     borderopacity="1.0"
     inkscape:showpageshadow="2"
     inkscape:pageopacity="0.0"
     inkscape:pagecheckerboard="0"
     inkscape:deskcolor="#d1d1d1"
     inkscape:document-units="mm"
     showgrid="false"
     inkscape:zoom="6.5851852"
     inkscape:cx="84.28009"
     inkscape:cy="78.205849"
     inkscape:window-width="2560"
     inkscape:window-height="1385"
     inkscape:window-x="0"
     inkscape:window-y="0"
     inkscape:window-maximized="1"
     inkscape:current-layer="layer1" /><defs
     id="defs2"><path
       id="radic"
       style="stroke:none"
       d="M 3.875,8.515625 2.109375,4.609375 C 2.0625,4.53125 2.046875,4.46875 1.96875,4.46875 c -0.03125,0 -0.046875,0 -0.140625,0.09375 L 0.84375,5.296875 C 0.734375,5.390625 0.734375,5.40625 0.734375,5.4375 c 0,0.078125 0.03125,0.109375 0.09375,0.109375 0.03125,0 0.046875,0 0.140625,-0.078125 l 0.515625,-0.390625 1.96875,4.34375 C 3.515625,9.5625 3.53125,9.5625 3.65625,9.5625 3.8125,9.5625 3.828125,9.53125 3.890625,9.375 L 8.4375,-0.03125 C 8.5,-0.140625 8.5,-0.15625 8.5,-0.203125 8.5,-0.3125 8.421875,-0.40625 8.296875,-0.40625 c -0.109375,0 -0.140625,0.078125 -0.203125,0.203125 z m 0,0" /></defs><g
     inkscape:label="Layer 1"
     inkscape:groupmode="layer"
     id="layer1"
     transform="translate(-17.449773,-115.02404)"><g
       id="g39"
       transform="matrix(0.8113753,0,0,0.97372659,32.612381,123.81979)"><path
         fill="#d99e82"
         d="m 12.75,17.75 c 1.226,2.195 1.856,-1.361 9.312,-2.625 7.456,-1.264 13.729,4.454 13.859,5.413 C 36.053,21.496 31.474,30 26.459,30 H 10.75 c -4.143,0 -7.022,-7.224 -4,-11.438 0,0 4.5,-3.5 6,-0.812 z"
         id="path9" /><path
         fill="#c1694f"
         d="M 13.008,18.136 C 8.02,25.073 6.969,30 10.75,30 6.607,30 4.172,23.812 6.282,18.969 6.745,17.905 8.04,16.477 8.04,16.477 l 4.179,-0.008 c 0.162,0.32 0.599,1.365 0.789,1.667 z"
         id="path11" /><path
         fill="#e1e8ed"
         d="M 20.062,22.75 C 26.734,20.068 35.791,19.579 35.921,20.538 36.053,21.496 31.474,30 26.459,30 H 11.813 c -4.143,0 1.232,-4.429 8.249,-7.25 z"
         id="path13" /><path
         fill="#292f33"
         d="m 25.359,21.125 c 6,-1.312 10.468,-1.282 10.563,-0.587 0.079,0.578 -1.559,3.907 -3.973,6.454 2.204,-2.804 1.42,-6.113 -6.59,-5.867 z"
         id="path15" /><path
         fill="#3e721d"
         d="m 7.125,6.125 c 1.562,-4.938 10.44,-4.143 10.062,0.688 -0.378,4.829 -6.453,7.859 -4.179,11.323 -1.586,1.38 -5.016,0.913 -6.727,0.833 C 6.983,17.618 7.662,16.338 8.093,15.563 11.009,10.328 5.962,9.799 7.125,6.125 Z"
         id="path17" /><path
         fill="#ffcc4d"
         d="M 1.893,9.045 C 2.461,7.945 2.442,9.151 5.245,9.187 6.799,9.208 6.708,8.627 6.909,7.566 6.95,7.343 7.685,9.182 8.97,9.373 c 3.554,0.531 1.879,1.94 0,2.261 C 8.069,11.788 6.96,11.952 5.032,11.789 2.513,11.577 1.264,10.261 1.893,9.045 Z"
         id="path19" /><path
         fill="#f5f8fa"
         d="m 12.502,16.625 c 0.044,0.625 0.506,1.511 0.506,1.511 -1.016,1.474 -5.643,3.017 -7.354,2.93 0.096,-0.628 0.283,-1.362 0.627,-2.097 1.844,-0.471 4.661,-1.071 6.221,-2.344 z"
         id="path21" /><path
         fill="#292f33"
         d="m 11.708,6.151 c 0,0.716 -0.58,1.296 -1.296,1.296 -0.716,0 -1.295,-0.58 -1.295,-1.296 0,-0.716 0.579,-1.295 1.295,-1.295 0.716,0 1.296,0.58 1.296,1.295 z"
         id="path23" /></g><use
       xlink:href="#radic"
       x="-0.56093901"
       y="1.05899"
       id="use154"
       transform="matrix(2.5451615,0,0,3.2160768,17.00835,118.87206)" /><path
       style="fill:none;stroke:#000000;stroke-width:1.26481;stroke-linecap:butt;stroke-linejoin:miter;stroke-miterlimit:10;stroke-opacity:1"
       d="M 36.667769,121.60682 H 61.760826"
       id="path156" /></g></svg>
