<?xml version="1.0" encoding="UTF-8" standalone="no"?>
<!-- Generator: Adobe Illustrator 27.2.0, SVG Export Plug-In . SVG Version: 6.00 Build 0)  -->

<svg
   version="1.1"
   x="0px"
   y="0px"
   viewBox="0 0 589.05997 255.25999"
   xml:space="preserve"
   id="svg59"
   sodipodi:docname="logo_pride.svg"
   width="589.06"
   height="255.25999"
   inkscape:version="1.2.2 (b0a8486541, 2022-12-01)"
   xmlns:inkscape="http://www.inkscape.org/namespaces/inkscape"
   xmlns:sodipodi="http://sodipodi.sourceforge.net/DTD/sodipodi-0.dtd"
   xmlns:xlink="http://www.w3.org/1999/xlink"
   xmlns="http://www.w3.org/2000/svg"
   xmlns:svg="http://www.w3.org/2000/svg"><defs
   id="defs63"><linearGradient
     inkscape:collect="always"
     id="linearGradient1336"><stop
       style="stop-color:#e50000;stop-opacity:1;"
       offset="0"
       id="stop1332" /><stop
       style="stop-color:#ff8d00;stop-opacity:1;"
       offset="0.2"
       id="stop1340" /><stop
       style="stop-color:#ffee00;stop-opacity:1;"
       offset="0.40000001"
       id="stop1342" /><stop
       style="stop-color:#028121;stop-opacity:1;"
       offset="0.60000002"
       id="stop1344" /><stop
       style="stop-color:#004cff;stop-opacity:1;"
       offset="0.80000001"
       id="stop1346" /><stop
       style="stop-color:#770088;stop-opacity:1;"
       offset="1"
       id="stop1348" /></linearGradient><linearGradient
     inkscape:collect="always"
     xlink:href="#linearGradient1336"
     id="linearGradient1338"
     x1="575.4635"
     y1="295.17975"
     x2="575.62097"
     y2="452.20901"
     gradientUnits="userSpaceOnUse" /></defs><sodipodi:namedview
   id="namedview61"
   pagecolor="#ffffff"
   bordercolor="#000000"
   borderopacity="0.25"
   inkscape:showpageshadow="2"
   inkscape:pageopacity="0.0"
   inkscape:pagecheckerboard="0"
   inkscape:deskcolor="#d1d1d1"
   showgrid="false"
   inkscape:zoom="1.4848322"
   inkscape:cx="346.84054"
   inkscape:cy="200.35934"
   inkscape:window-width="1920"
   inkscape:window-height="1176"
   inkscape:window-x="0"
   inkscape:window-y="0"
   inkscape:window-maximized="1"
   inkscape:current-layer="g2359"
   showguides="false" />
<style
   type="text/css"
   id="style2">
	.st0{fill:#45A07A;}
	.st1{fill:#808080;}
</style>

<g
   id="graphics"
   transform="translate(-276.92,-293.88)">
	<g
   id="g29">
		<path
   class="st0"
   d="m 289.62,516.21 v 31.8 h -12.7 v -29.26 c 0,-14.21 7.15,-21.26 21.36,-21.26 6.4,0 11.29,1.41 14.87,4.23 3.58,-2.73 8.47,-4.05 14.87,-4.05 14.21,0 21.26,7.06 21.17,21.26 v 29.26 h -6.49 c -4.14,-0.28 -6.21,-2.26 -6.21,-6.21 V 516.4 c -0.28,-5.17 -3.11,-7.72 -8.66,-7.72 -5.55,0 -8.37,2.54 -8.47,7.72 v 31.61 h -12.61 v -31.8 c -0.28,-5.17 -3.1,-7.71 -8.66,-7.71 -5.55,0 -8.37,2.54 -8.47,7.71 z"
   id="path5" />
		<path
   class="st0"
   d="m 371.19,511.23 h -12.51 c 1.51,-9.22 8,-13.74 19.48,-13.74 13.74,0 20.7,4.52 20.98,13.74 v 16.93 c 0,13.74 -8.28,19.85 -21.73,20.79 -11.95,0.94 -20.23,-4.61 -20.23,-15.62 0.28,-11.95 8.94,-15.15 21.55,-16.37 5.36,-0.66 8.09,-2.26 8.09,-4.99 -0.28,-2.82 -2.92,-4.23 -8.09,-4.23 -4.43,0 -6.88,1.13 -7.54,3.49 z M 387,527.6 v -4.61 c -2.92,1.22 -6.3,2.26 -9.97,3.01 -4.99,0.94 -7.53,3.29 -7.53,6.96 0.28,3.95 2.35,5.83 6.3,5.83 6.97,0 11.2,-4.14 11.2,-11.19 z"
   id="path7" />
		<path
   class="st0"
   d="m 422.75,507.18 h -1.32 v 27.57 c 0,2.07 1.22,3.2 3.67,3.2 h 3.86 v 9.5 c -4.05,0.38 -8.47,0.38 -13.17,-0.09 -4.7,-0.47 -6.96,-3.39 -6.87,-8.94 v -54.38 h 6.49 c 3.29,0 6.02,3.01 6.02,6.3 v 7.9 h 7.53 v 2.73 c 0,3.57 -2.73,6.21 -6.21,6.21 z"
   id="path9" />
		<path
   class="st0"
   d="m 459.25,508.68 c -7.43,0 -10.63,6.21 -10.63,13.83 v 25.5 h -12.51 v -63.98 h 6.3 c 4.14,0 6.21,2.16 6.21,6.3 v 14.87 c 6.4,-7.34 14.21,-9.41 23.52,-6.12 6.96,2.54 10.25,9.22 9.88,20.04 V 548 H 469.6 v -25.5 c 0,-8.36 -3.2,-13.82 -10.35,-13.82 z"
   id="path11" />
		<path
   class="st0"
   d="m 512.51,549.14 c -15.05,-0.47 -22.58,-9.22 -22.58,-26.16 0,-16.94 7.62,-25.4 22.77,-25.5 15.81,0 23.24,9.69 22.3,29.17 h -32.18 c 0.47,7.62 3.76,11.48 9.88,11.48 2.92,0 5.64,-1.22 8.09,-3.58 1.13,-1.22 2.54,-1.79 4.23,-1.79 h 9.22 c -2.73,10.55 -9.5,16.38 -21.73,16.38 z M 503,517.72 h 18.72 c -0.75,-6.59 -3.86,-9.97 -9.22,-9.97 -5.36,-0.01 -8.56,3.38 -9.5,9.97 z"
   id="path13" />
		<path
   class="st1"
   d="m 606.12,498.24 -13.83,49.77 H 579.3 l -7.53,-35.66 -7.9,35.66 H 550.8 l -13.64,-49.77 h 12.7 l 7.9,34.53 7.15,-34.53 h 13.27 l 6.77,34.53 6.77,-29.92 c 0.94,-3.1 3.01,-4.61 6.12,-4.61 z"
   id="path15" />
		<path
   class="st1"
   d="m 656.83,523.36 c 0,17.12 -7.62,25.78 -22.67,25.78 -15.05,0 -22.58,-8.66 -22.58,-25.78 0,-17.31 7.53,-25.87 22.58,-25.87 15.05,0 22.67,8.56 22.67,25.87 z m -32.55,0 c 0.09,9.69 3.39,14.58 9.79,14.58 6.4,0 9.6,-5.08 9.69,-14.96 0,-9.69 -3.2,-14.49 -9.6,-14.49 -6.59,0.01 -9.88,4.99 -9.88,14.87 z"
   id="path17" />
		<path
   class="st1"
   d="m 664.73,522.33 c 0.38,-16.09 8.94,-24.09 25.59,-24.09 h 1.79 v 12.98 h -4.23 c -6.96,0 -10.44,3.67 -10.44,10.91 V 548 h -12.7 v -25.67 z"
   id="path19" />
		<path
   class="st1"
   d="m 712.34,490.15 v 27.57 l 15.43,-17.69 h 15.05 l -17.22,18.44 17.41,29.54 h -15.05 l -8.84,-16.37 c -1.6,-2.82 -3.2,-4.23 -4.8,-4.23 -1.32,0.28 -1.98,1.13 -1.98,2.45 v 18.16 h -12.51 v -63.98 h 6.49 c 3.29,-0.01 6.02,2.82 6.02,6.11 z"
   id="path21" />
		<path
   class="st1"
   d="m 788.83,523.36 c 0,17.12 -7.62,25.78 -22.67,25.78 -15.05,0 -22.58,-8.66 -22.58,-25.78 0,-17.31 7.53,-25.87 22.58,-25.87 15.05,0 22.67,8.56 22.67,25.87 z m -32.56,0 c 0.09,9.69 3.39,14.58 9.79,14.58 6.4,0 9.6,-5.08 9.69,-14.96 0,-9.69 -3.2,-14.49 -9.6,-14.49 -6.58,0.01 -9.88,4.99 -9.88,14.87 z"
   id="path23" />
		<path
   class="st1"
   d="m 838.6,528.16 c 0,8.56 -2.16,14.21 -6.59,16.94 -4.42,2.54 -9.31,3.86 -14.68,3.86 -5.17,0 -9.78,-1.41 -14.11,-4.23 -4.33,-2.73 -6.49,-8.19 -6.49,-16.56 v -29.92 h 12.51 v 32.46 c 0,5.55 2.82,8.28 8.47,8.28 5.64,0 8.47,-2.73 8.47,-8.28 v -26.25 c -0.09,-4.14 1.88,-6.21 6.02,-6.21 h 6.4 z"
   id="path25" />
		<path
   class="st1"
   d="m 859.77,507.18 h -1.32 v 27.57 c 0,2.07 1.22,3.2 3.67,3.2 h 3.86 v 9.5 c -4.05,0.38 -8.47,0.38 -13.17,-0.09 -4.7,-0.47 -6.96,-3.39 -6.87,-8.94 v -54.38 h 6.49 c 3.29,0 6.02,3.01 6.02,6.3 v 7.9 h 7.53 v 2.73 c -0.01,3.57 -2.73,6.21 -6.21,6.21 z"
   id="path27" />
	</g>
	<g
   id="g55">
		
		<g
   id="g2359"><g
     id="g43">
			<path
   class="st1"
   d="m 690.42,293.88 c -5.31,0 -9.61,4.3 -9.61,9.61 v 79.37 c 0,5.31 4.3,9.61 9.61,9.61 5.31,0 9.61,-4.3 9.61,-9.61 v -79.37 c 0.01,-5.31 -4.3,-9.61 -9.61,-9.61 z"
   id="path31" />
			<path
   class="st1"
   d="m 714.18,308.52 c -5.31,0 -9.61,4.3 -9.61,9.61 v 50.08 c 0,5.31 4.3,9.61 9.61,9.61 5.31,0 9.61,-4.3 9.61,-9.61 v -50.08 c 0,-5.3 -4.31,-9.61 -9.61,-9.61 z"
   id="path33" />
			<path
   class="st1"
   d="m 453.04,293.88 c -5.31,0 -9.61,4.3 -9.61,9.61 v 79.37 c 0,5.31 4.3,9.61 9.61,9.61 5.31,0 9.61,-4.3 9.61,-9.61 v -79.37 c 0,-5.31 -4.3,-9.61 -9.61,-9.61 z"
   id="path35" />
			<path
   class="st1"
   d="m 429.28,308.52 c -5.31,0 -9.61,4.3 -9.61,9.61 v 50.08 c 0,5.31 4.3,9.61 9.61,9.61 5.31,0 9.61,-4.3 9.61,-9.61 v -50.08 c 0.01,-5.3 -4.3,-9.61 -9.61,-9.61 z"
   id="path37" />
			<path
   class="st1"
   d="m 499.03,334.16 h -31.74 v 18.03 h 25.91 c 0.69,-1.25 1.44,-2.48 2.27,-3.7 l 3.76,-5.52 c -0.47,-2.84 -0.54,-5.82 -0.2,-8.81 z"
   id="path39" />
			<path
   class="st1"
   d="m 652.56,352.19 h 23.61 v -18.03 h -32.33 c 5.04,4.43 8.1,10.68 8.72,18.03 z"
   id="path41" />
		</g><g
     id="g53"
     style="fill-opacity:1;fill:url(#linearGradient1338)">
			<path
   class="st0"
   d="m 530.69,367.79 c 0.96,-4.82 3.21,-7.84 3.35,-8.03 0.9,-1.18 2.64,-1.45 3.9,-0.61 1.25,0.84 1.49,2.44 0.64,3.65 -1.39,1.99 -3.22,7.39 -2.37,12.13 0.85,4.74 2.29,8.58 10.17,9.99 5,0.9 5.49,4.74 5.85,7.54 0.4,3.08 0.89,6.91 5.66,11.11 1.88,1.66 4.28,2.89 6.82,4.2 1.26,0.65 2.58,1.33 3.89,2.1 1.96,-4.17 3.58,-11.3 3.45,-15.56 -0.17,-5.28 -1.99,-10.31 -5.28,-14.56 l -0.71,-0.92 0.23,-1.11 c 0.4,-1.98 0.57,-3.98 0.53,-5.97 -0.99,0.33 -2.27,0.54 -3.54,0.53 -5.36,-0.05 -9.48,-2.12 -12.27,-5.45 -4.81,-5.74 -3.71,-12.13 -3.48,-15.48 0.23,-3.34 0.43,-6.01 0.84,-9.78 0.63,-5.85 1.4,-13.14 0.81,-15.73 -1.81,-7.97 -5.92,-7.84 -7.46,-7.79 -1.54,0.05 -2.83,-1.09 -2.88,-2.53 -0.05,-1.45 1.17,-2.66 2.71,-2.71 3.85,-0.12 10.68,1.26 13.09,11.92 0.77,3.39 0.01,10.48 -0.72,17.34 -0.4,3.77 -0.74,6.49 -0.81,9.53 -0.07,3.04 -0.56,8.63 2.3,11.99 1.8,2.11 4.46,3.25 8.19,3.44 1.35,0.08 4.32,-1.25 5.9,-3.96 0.94,-2.1 1.4,-4.38 1.33,-6.68 -0.11,-3.4 -1.35,-6.62 -3.58,-9.32 l -1.37,-1.65 1.42,-1.62 c 2.63,-3.01 4.01,-6.78 3.88,-10.63 -0.1,-3.23 -1.23,-6.32 -3.26,-8.92 l -1.25,-1.61 1.32,-1.57 c 2.51,-2.97 3.82,-6.69 3.7,-10.47 -0.29,-9.3 -6.71,-15.6 -15.61,-15.32 -6.14,0.19 -10.74,2.74 -13.31,8.68 -6.22,-1.65 -13.49,3.75 -15.11,9.12 -1.68,5.56 -0.66,12.22 6.38,20.64 1.04,1.25 2.16,2.37 3.31,3.33 1.15,0.96 1.25,2.62 0.22,3.7 -0.53,0.56 -1.26,0.86 -2,0.89 -0.69,0.02 -1.39,-0.2 -1.94,-0.66 -1.4,-1.17 -2.74,-2.52 -3.99,-4.01 -5.03,-6.02 -6.83,-12.81 -7.46,-17.4 -10.63,7.27 -12,20.64 -7.15,27.99 -6.17,9.37 3.48,20.81 15.66,20.23 z"
   id="path45"
   style="fill-opacity:1;fill:url(#linearGradient1338)" />
			<path
   class="st0"
   d="m 562.03,412.39 c -2.84,-1.19 -5.57,-2.86 -7.96,-4.97 -6.24,-5.5 -6.92,-10.79 -7.37,-14.3 -0.37,-2.86 -0.48,-2.87 -1.38,-3.04 -4.54,-0.82 -7.66,-2.28 -9.84,-4.15 -2.7,1.18 -5.35,1.71 -7.79,1.79 -7.2,0.23 -12.71,-3.16 -13.02,-3.35 -1.28,-0.8 -1.62,-2.43 -0.76,-3.64 0.86,-1.2 2.6,-1.53 3.87,-0.73 0.31,0.19 7.03,4.24 14.42,1.58 -0.72,-1.53 -2.13,-4.73 -2.04,-8.48 -11.74,0.32 -22.6,-6.62 -23.06,-18.23 -15.17,22.29 2.9,43.17 23.52,49.08 5.55,1.59 9.55,7.15 9.6,12.94 0.01,1.01 -0.13,2.53 -0.75,4.23 2.19,0.41 4.77,1.16 7.34,2.34 -0.63,-3.97 -0.13,-7.3 -0.1,-7.52 0.22,-1.43 1.66,-2.42 3.17,-2.22 1.52,0.21 2.58,1.53 2.36,2.97 -0.01,0.07 -1.28,8.42 2.41,12.32 1.96,2.07 3.91,5.51 4.47,9.33 0.21,1.43 -0.86,2.76 -2.39,2.97 -0.1,0.01 -0.2,0.02 -0.3,0.02 -1.41,0.05 -2.65,-0.91 -2.85,-2.26 -1.65,-11.19 -13.13,-12.74 -17.19,-13.15 -1.83,1.87 -4.52,3.64 -8.48,4.96 -0.28,0.1 -0.56,0.14 -0.84,0.15 -1.18,0.04 -2.31,-0.64 -2.72,-1.74 -0.51,-1.36 0.25,-2.86 1.71,-3.35 5.56,-1.86 8.6,-5.05 8.56,-9 -0.03,-3.5 -2.57,-7.02 -5.78,-8.01 -11.48,-3.55 -19.91,-9.36 -25.13,-17.28 -6.74,17.62 7.87,25.1 17.21,24 1.51,-0.16 2.93,0.84 3.11,2.28 0.18,1.44 -0.91,2.75 -2.44,2.93 -0.76,0.09 -1.5,0.14 -2.22,0.17 -3.22,0.1 -6.07,-0.41 -8.53,-1.23 -2.2,9.73 7.76,25.96 25.95,19.29 2.28,12.76 21.09,18.66 31.93,6.54 10.68,-11.94 3.27,-29.05 -6.69,-33.24 z"
   id="path47"
   style="fill-opacity:1;fill:url(#linearGradient1338)" />
			<path
   class="st0"
   d="m 575.47,331.68 c 0.02,0.65 0.09,1.3 0.2,1.94 2.17,-2.88 4.58,-5.29 6.16,-6.56 0.64,-0.51 1.25,-1 1.84,-1.47 5.88,-4.66 8.83,-7 8.32,-14.84 -0.09,-1.4 1.04,-2.61 2.53,-2.7 1.52,-0.1 2.77,0.97 2.86,2.37 0.68,10.39 -3.9,14.02 -10.23,19.04 -0.58,0.46 -1.19,0.94 -1.81,1.44 -2.37,1.91 -5.38,5.37 -7.31,8.69 l 0.03,0.06 -0.56,1.14 c -1.09,2.22 -1.6,4.57 -1.52,6.97 0.07,2.27 0.67,4.47 1.78,6.53 l 0.54,1.01 -0.44,1.06 c -1.17,2.78 -1.72,5.71 -1.62,8.7 0.08,2.4 0.62,4.75 1.5,6.99 1.96,-2.5 4.55,-4.64 7.68,-6.29 4.45,-2.34 9.62,-3.43 13.42,-2.94 5.49,-6.17 12.99,-9.72 21.29,-10.04 0.07,0 0.14,-0.01 0.21,-0.01 4.78,-0.15 14.17,1.21 18.33,6.82 1.81,-10.14 -1.81,-18.46 -12.37,-20.62 2.05,-8.34 -3.22,-16.11 -8.13,-18.77 -2.01,5.81 -5.25,9 -8.71,11.52 1.26,1.71 4.28,6.3 4.34,11.19 0.02,1.39 -1.15,2.53 -2.62,2.58 -0.02,0 -0.03,0 -0.05,0 -1.49,0.02 -2.72,-1.1 -2.73,-2.5 -0.04,-3.45 -2.39,-7.01 -3.34,-8.31 -4.37,2.89 -8.42,5.99 -11.01,13.82 -0.35,1.06 -1.38,1.76 -2.5,1.79 -0.29,0.01 -0.59,-0.02 -0.88,-0.11 -1.42,-0.41 -2.22,-1.83 -1.78,-3.17 3.34,-10.14 9.09,-13.89 14.17,-17.2 4.31,-2.81 8.05,-5.27 10.12,-11.61 l 0.42,-2.11 c 0.25,-1.27 0.36,-2.54 0.32,-3.79 -0.31,-9.76 -9.02,-17.44 -19.41,-17.11 -10.39,0.33 -18.6,8.54 -18.29,18.3 0.08,2.47 0.7,4.86 1.85,7.11 l 0.64,1.24 -0.77,1.18 c -1.71,2.63 -2.56,5.62 -2.47,8.66 z"
   id="path49"
   style="fill-opacity:1;fill:url(#linearGradient1338)" />
			<path
   class="st0"
   d="m 640.28,394.34 c -2.21,2.67 -4.59,4.85 -5,5.22 -0.5,0.45 -1.14,0.69 -1.79,0.71 -0.74,0.02 -1.48,-0.23 -2.03,-0.77 -1.03,-1.01 -0.99,-2.61 0.08,-3.58 1.15,-1.04 3.79,-3.66 5.62,-6.14 l -0.04,-0.05 0.97,-1.51 c 2.23,-3.47 3.34,-7.43 3.21,-11.45 -0.17,-5.42 -2.55,-10.47 -6.69,-14.26 -0.19,-0.18 -0.36,-0.35 -0.55,-0.52 l -0.2,-0.18 c -3.31,-2.65 -8.28,-4.11 -13.52,-3.95 -4.18,0.16 -12.11,1.58 -18.29,9.32 l -1.22,1.52 -1.9,-0.67 c -1.69,-0.59 -6.19,-0.32 -10.89,2.15 -3.34,1.75 -7.25,5.14 -8.79,10.87 -2.43,9.01 4.51,14.26 6.97,16 1.19,0.85 1.75,2.22 1.02,3.44 -0.48,0.81 -1.36,1.28 -2.27,1.3 -0.47,0.02 -0.95,-0.08 -1.39,-0.31 -2.06,-1.06 -4.87,-3.26 -7.03,-6.46 -0.65,1.98 -0.99,4.05 -0.92,6.15 0.13,4.03 1.58,7.86 4.21,11.06 l 0.78,0.95 c 2.25,2.51 5.44,4.97 7.91,6.87 1.18,0.9 2.23,1.72 3.03,2.4 7.53,6.44 6.06,14.31 4.23,17.57 -0.47,0.84 -1.37,1.33 -2.31,1.36 -0.46,0.01 -0.91,-0.08 -1.34,-0.29 -1.31,-0.65 -1.81,-2.17 -1.13,-3.4 0.34,-0.63 3.07,-6.2 -3.09,-11.47 -0.75,-0.64 -1.73,-1.39 -2.82,-2.23 -1.88,-1.45 -4.13,-3.19 -6.21,-5.11 -0.11,0.73 -0.17,1.47 -0.15,2.22 0.06,1.95 0.56,3.83 1.49,5.59 l 0.63,1.2 -0.7,1.17 c -1.48,2.48 -2.21,5.28 -2.13,8.08 0.27,8.6 7.94,15.35 17.1,15.06 6.41,-0.2 12.02,-3.76 14.65,-9.28 l 0.47,-0.98 1.07,-0.37 c 3.01,-1.04 5.54,-3.01 7.24,-5.51 -2.32,-0.25 -4.5,-0.97 -6.45,-2.16 -3.66,-2.24 -6.01,-5.86 -6.43,-9.96 -0.39,-3.76 0.77,-7.96 2.03,-11.23 -2.31,0.76 -4.69,1.15 -6.85,1.22 -2.31,0.07 -4.38,-0.21 -5.86,-0.78 -1.38,-0.52 -2.04,-2 -1.48,-3.3 0.56,-1.3 2.14,-1.92 3.52,-1.4 3.01,1.14 12.54,0.12 15.81,-5.66 3.35,-5.98 4.24,-9.09 2.98,-12.1 -1.21,-2.89 -3.55,-3.93 -5.3,-4.3 -3.21,-0.66 -6.93,0.44 -9.69,2.89 -1.09,0.97 -2.79,0.93 -3.82,-0.09 -1.02,-1.02 -0.97,-2.62 0.11,-3.59 3.38,-3 7.83,-4.59 12.1,-4.43 1.27,-4.72 0.14,-9.27 0.12,-9.32 -0.35,-1.36 0.54,-2.73 1.99,-3.07 1.43,-0.33 2.91,0.49 3.26,1.85 0.06,0.26 1.45,5.78 -0.12,11.7 2.89,1.29 5.14,3.55 6.37,6.48 2.6,6.23 -0.52,11.93 -5.81,20.71 -0.02,0.03 -4.6,8.09 -3.99,13.89 0.26,2.55 1.69,4.87 4.01,6.21 14.9,8.65 32.55,-15.5 25.22,-35.28 z"
   id="path51"
   style="fill-opacity:1;fill:url(#linearGradient1338)" />
		</g></g>
	</g>
</g>

</svg>
