<?xml version="1.0" encoding="UTF-8" standalone="no"?>
<svg
   viewBox="0 0 640.69574 640.69574"
   version="1.1"
   id="svg4"
   sodipodi:docname="logo.svg"
   width="640.69574"
   height="640.69574"
   inkscape:version="1.2.1 (9c6d41e410, 2022-07-14)"
   inkscape:export-filename="../app/static/192.png"
   inkscape:export-xdpi="28.768726"
   inkscape:export-ydpi="28.768726"
   xmlns:inkscape="http://www.inkscape.org/namespaces/inkscape"
   xmlns:sodipodi="http://sodipodi.sourceforge.net/DTD/sodipodi-0.dtd"
   xmlns="http://www.w3.org/2000/svg"
   xmlns:svg="http://www.w3.org/2000/svg">
  <defs
     id="defs8" />
  <sodipodi:namedview
     id="namedview6"
     pagecolor="#ffffff"
     bordercolor="#666666"
     borderopacity="1.0"
     inkscape:showpageshadow="2"
     inkscape:pageopacity="0.0"
     inkscape:pagecheckerboard="0"
     inkscape:deskcolor="#d1d1d1"
     showgrid="false"
     inkscape:zoom="0.63805339"
     inkscape:cx="-67.392479"
     inkscape:cy="383.98041"
     inkscape:window-width="2560"
     inkscape:window-height="1385"
     inkscape:window-x="0"
     inkscape:window-y="0"
     inkscape:window-maximized="1"
     inkscape:current-layer="svg4" />
  <circle
     style="opacity:1;fill:#29ca8e;fill-opacity:1;stroke:none;stroke-width:57.0754;stroke-miterlimit:4;stroke-dasharray:none;stroke-opacity:0.225"
     id="path843"
     cx="320.34787"
     cy="320.34787"
     r="320.34787" />
  <!--! Font Awesome Free 6.1.2 by @fontawesome - https://fontawesome.com License - https://fontawesome.com/license/free (Icons: CC BY 4.0, Fonts: SIL OFL 1.1, Code: MIT License) Copyright 2022 Fonticons, Inc. -->
  <path
     d="m 495.24787,160.33288 c -38.78,0 -75.22,15.09 -102.6,42.5 l -72.3,72.29 -72.2,-72.3 c -27.41,-27.41 -63.84,-42.5 -102.6,-42.5 -80.09,0.01 -145.20000013,65.1 -145.20000013,145.1 v 29.75 c 0,80.03 65.11000013,145.1 145.10000013,145.1 38.78,0 75.22,-15.09 102.6,-42.5 l 72.3,-72.15 72.23,72.25 c 27.41,27.41 63.84,42.5 102.6,42.5 80.07,-0.05 145.17,-65.15 145.17,-145.15 v -29.75 c 0,-80.05 -65.1,-145.14 -145.1,-145.14 z m -292.4,232.29 c -15.31,15.31 -35.69,23.75 -57.38,23.75 -44.72,-0.05 -81.12,-36.45 -81.12,-81.15 v -29.75 c 0,-44.72 36.41,-81.13 81.14,-81.13 21.69,0 42.06,8.438 57.38,23.75 l 72.23,72.25 z m 373.5,-57.4 c 0,44.72 -36.41,81.13 -81.14,81.13 -21.69,0 -42.06,-8.438 -57.38,-23.75 l -72.23,-72.25 72.23,-72.25 c 15.31,-15.31 35.69,-23.75 57.38,-23.75 44.74,-0.03 81.14,36.37 81.14,81.07 z"
     id="path2"
     style="fill:#ffffff;fill-opacity:1" />
</svg>
