<?xml version="1.0" encoding="UTF-8" standalone="no"?>
<!-- Created with Inkscape (http://www.inkscape.org/) -->

<svg
   width="2000"
   height="2250"
   viewBox="0 0 529.1666 595.31281"
   version="1.1"
   id="svg437"
   xml:space="preserve"
   inkscape:version="1.2.2 (b0a8486541, 2022-12-01)"
   sodipodi:docname="bad-luck.svg"
   xmlns:inkscape="http://www.inkscape.org/namespaces/inkscape"
   xmlns:sodipodi="http://sodipodi.sourceforge.net/DTD/sodipodi-0.dtd"
   xmlns="http://www.w3.org/2000/svg"
   xmlns:svg="http://www.w3.org/2000/svg"><sodipodi:namedview
     id="namedview439"
     pagecolor="#ffffff"
     bordercolor="#000000"
     borderopacity="0.25"
     inkscape:showpageshadow="2"
     inkscape:pageopacity="0.0"
     inkscape:pagecheckerboard="0"
     inkscape:deskcolor="#d1d1d1"
     inkscape:document-units="mm"
     showgrid="false"
     showguides="true"
     inkscape:lockguides="false"
     inkscape:zoom="0.4204826"
     inkscape:cx="537.47765"
     inkscape:cy="1038.0929"
     inkscape:window-width="1920"
     inkscape:window-height="1176"
     inkscape:window-x="0"
     inkscape:window-y="0"
     inkscape:window-maximized="1"
     inkscape:current-layer="g954"><inkscape:grid
       type="xygrid"
       id="grid5299"
       spacingx="6.6145825"
       spacingy="6.6145825"
       originx="0"
       originy="0" /><sodipodi:guide
       position="0,595.31282"
       orientation="0,2000"
       id="guide5327"
       inkscape:locked="false" /><sodipodi:guide
       position="529.1666,595.31282"
       orientation="3000,0"
       id="guide5329"
       inkscape:locked="false" /><sodipodi:guide
       position="529.1666,-198.43708"
       orientation="0,-2000"
       id="guide5331"
       inkscape:locked="false" /><sodipodi:guide
       position="0,-198.43708"
       orientation="-3000,0"
       id="guide5333"
       inkscape:locked="false" /></sodipodi:namedview><defs
     id="defs434" /><g
     inkscape:label="Layer 1"
     inkscape:groupmode="layer"
     id="layer1"><g
       id="g954"
       transform="matrix(9.2586619,0,0,9.2586619,115.09276,88.093584)"><path
         style="opacity:1;fill:none;fill-opacity:1;stroke:#45a07a;stroke-width:2.14326;stroke-dasharray:none;stroke-dashoffset:0;stroke-opacity:1"
         d="M -8.858715,-2.3051347 V 29.8904 c 0,3.460139 2.3544412,5.141883 2.3544412,5.141883 l 19.0325328,13.594666 3.617761,2.584115 3.638266,-2.598761 18.692232,-13.351595 c 0,0 2.674237,-1.910169 2.674237,-5.367304 V -2.5555536 C 41.494129,-6.2827862 37.57865,-5.9426159 37.57865,-5.9426159 H -5.28661 c 0,0 -3.572105,-0.5340659 -3.572105,3.6374812 z"
         id="path5132"
         sodipodi:nodetypes="cccccccccccc" /><g
         id="g9598"
         transform="matrix(-0.84836144,0.81258182,-0.81258182,-0.84836144,51.579674,27.079913)"><g
           id="g9616"><path
             fill="#ffcc4d"
             d="m 22,20 c -0.296,0.592 1.167,-3.833 -3,-6 -1.984,-1.032 -10,1 -4,1 3,0 4,2 2,4 -0.291,0.292 -0.489,0.603 -0.622,0.912 C 15.961,20.258 15.505,20.621 15,21 c -2.263,1.697 -5.84,4.227 -10,7 -3,2 -4,3 -4,4 0,3 9,3 14,1 5,-2 10,-7 10,-7 l 4,-4 c -3,-4 -7,-2 -7,-2 z"
             id="path9566"
             style="fill:#45a07a;fill-opacity:1" /><path
             fill="#ffe8b6"
             d="m 22,20 c 0,0 1.792,-4.729 -3,-7 -4.042,-1.916 -8,-1 -11,1 -3,2 -2,4 -3,5 -1,1 1,2 3,0 2,-2 8.316,-4.895 11,-4 3,1 2,2.999 3,5 z"
             id="path9568"
             style="fill:#82c9ab;fill-opacity:1" /><path
             fill="#ffcc4d"
             d="m 32.208,28 c 0,0 -4.208,7 -6.208,7 h -4 c -2,0 0,-1 1,-2 1,-1 5,0 5,-6 0,-3 4.208,1 4.208,1 z"
             id="path9574"
             style="fill:#45a07a;fill-opacity:1" /><path
             fill="#ffe8b6"
             d="m 26,19 c 3,0 8,3 7,9 -1,6 -5,7 -7,7 h -2 c -2,0 -1,-1 0,-2 1,-1 4,0 4,-6 0,-3 -4,-7 -6,-7 0,0 2,-1 4,-1 z"
             id="path9576"
             style="fill:#82c9ab;fill-opacity:1" /><path
             fill="#ffd983"
             d="m 17,21 c 3,0 5,1 3,3 -1.581,1.581 -6,5 -10,6 -4,1 -8,1 -5,-1 3,-2 9.764,-8 12,-8 z"
             id="path9578"
             style="fill:#72c29f;fill-opacity:1" /><path
             fill="#c1694f"
             d="m 2,31 c 1,0 1,0 1,0.667 C 3,32.333 3,33 2,33 1,33 1,31.667 1,31.667 1,31.667 1,31 2,31 Z"
             id="path9580"
             style="fill:#255643;fill-opacity:1" /></g></g></g></g></svg>
