<?xml version="1.0" encoding="UTF-8" standalone="no"?>
<!-- Created with Inkscape (http://www.inkscape.org/) -->

<svg
   width="2000"
   height="2250"
   viewBox="0 0 529.1666 595.31281"
   version="1.1"
   id="svg437"
   xml:space="preserve"
   inkscape:version="1.2.2 (b0a8486541, 2022-12-01)"
   sodipodi:docname="board.svg"
   xmlns:inkscape="http://www.inkscape.org/namespaces/inkscape"
   xmlns:sodipodi="http://sodipodi.sourceforge.net/DTD/sodipodi-0.dtd"
   xmlns="http://www.w3.org/2000/svg"
   xmlns:svg="http://www.w3.org/2000/svg"><sodipodi:namedview
     id="namedview439"
     pagecolor="#ffffff"
     bordercolor="#000000"
     borderopacity="0.25"
     inkscape:showpageshadow="2"
     inkscape:pageopacity="0.0"
     inkscape:pagecheckerboard="0"
     inkscape:deskcolor="#d1d1d1"
     inkscape:document-units="mm"
     showgrid="false"
     showguides="true"
     inkscape:lockguides="false"
     inkscape:zoom="0.052560325"
     inkscape:cx="513.69545"
     inkscape:cy="1474.4962"
     inkscape:window-width="1920"
     inkscape:window-height="1176"
     inkscape:window-x="0"
     inkscape:window-y="0"
     inkscape:window-maximized="1"
     inkscape:current-layer="g12330"><inkscape:grid
       type="xygrid"
       id="grid5299"
       spacingx="6.6145825"
       spacingy="6.6145825"
       originx="0"
       originy="0" /><sodipodi:guide
       position="0,595.31282"
       orientation="0,2000"
       id="guide5327"
       inkscape:locked="false" /><sodipodi:guide
       position="529.1666,595.31282"
       orientation="3000,0"
       id="guide5329"
       inkscape:locked="false" /><sodipodi:guide
       position="529.1666,-198.43708"
       orientation="0,-2000"
       id="guide5331"
       inkscape:locked="false" /><sodipodi:guide
       position="0,-198.43708"
       orientation="-3000,0"
       id="guide5333"
       inkscape:locked="false" /></sodipodi:namedview><defs
     id="defs434" /><g
     inkscape:label="Layer 1"
     inkscape:groupmode="layer"
     id="layer1"><g
       id="g954"
       transform="matrix(9.2586619,0,0,9.2586619,115.09276,88.093584)"><path
         style="opacity:1;fill:none;fill-opacity:1;stroke:#45a07a;stroke-width:2.14326;stroke-dasharray:none;stroke-dashoffset:0;stroke-opacity:1"
         d="M -8.858715,-2.3051347 V 29.8904 c 0,3.460139 2.3544412,5.141883 2.3544412,5.141883 l 19.0325328,13.594666 3.617761,2.584115 3.638266,-2.598761 18.692232,-13.351595 c 0,0 2.674237,-1.910169 2.674237,-5.367304 V -2.5555536 C 41.494129,-6.2827862 37.57865,-5.9426159 37.57865,-5.9426159 H -5.28661 c 0,0 -3.572105,-0.5340659 -3.572105,3.6374812 z"
         id="path5132"
         sodipodi:nodetypes="cccccccccccc" /><g
         id="g12330"
         transform="matrix(0.97798388,0,0,0.98777702,-1.4475538,-1.6818424)"><path
           fill="#d99e82"
           d="m 30,26 c 0,2.209 -1.791,4 -4,4 H 4 C 1.791,30 0,28.209 0,26 V 4 C 0,1.791 1.791,0 4,0 h 22 c 2.209,0 4,1.791 4,4 z"
           id="path12285"
           style="fill:#214d3b;fill-opacity:1" /><path
           fill="#5c913b"
           d="m 28,26 c 0,1.104 -0.896,2 -2,2 H 4 C 2.896,28 2,27.104 2,26 V 4 C 2,2.895 2.896,2 4,2 h 22 c 1.104,0 2,0.895 2,2 z"
           id="path12287"
           style="fill:#45a07a;fill-opacity:1" /><path
           fill="#ccd6dd"
           d="m 36,36 v -2 c 0,-3.314 -2.686,-6 -6,-6 H 14 c -3.313,0 -6,2.686 -6,6 v 2 z"
           id="path12291" /><path
           fill="#99aab5"
           d="m 22.073,30.805 c 0,0 3.297,0.891 4.545,1.307 0.16,0.053 -0.951,-2.108 -0.951,-2.108 h -7.453 c 0,0 -0.679,1.542 -1.071,2.197 1.96,-0.624 4.798,-1.485 4.798,-1.485"
           id="path12293" /><path
           fill="#f7dece"
           d="m 17.64,28.101 c 0.774,0.562 1.206,1.644 2.3,1.911 0.326,0.702 0.746,1.635 1.122,2.476 0.355,0.795 1.486,0.783 1.825,-0.02 0.355,-0.84 0.755,-1.767 1.074,-2.456 1.105,-0.446 1.611,-1.339 2.399,-1.911 V 24.29 h -8.72 z"
           id="path12295" /><path
           fill="#eec2ad"
           d="m 17.632,25.973 c 1.216,1.374 2.724,1.746 4.364,1.746 1.639,0 3.146,-0.373 4.363,-1.746 v -3.491 h -8.728 v 3.491 z"
           id="path12297" /><path
           fill="#292f33"
           d="M 25.731,3.323 C 23.806,2.7 19.276,2.87 18.143,4.342 15.199,4.399 11.745,7.06 11.292,10.57 c -0.448,3.475 0.551,5.088 0.906,7.701 0.403,2.96 2.067,3.907 3.397,4.303 1.914,2.529 3.949,2.421 7.366,2.421 6.672,0 9.85,-4.464 10.131,-12.047 0.17,-4.585 -2.521,-8.059 -7.361,-9.625 z"
           id="path12299" /><path
           fill="#f7dece"
           d="m 29.547,13.273 c -0.646,-0.894 -1.472,-1.614 -3.284,-1.868 0.68,0.311 1.331,1.387 1.416,1.982 0.085,0.595 0.17,1.076 -0.368,0.481 -2.155,-2.382 -4.502,-1.444 -6.827,-2.899 -1.624,-1.016 -2.119,-2.141 -2.119,-2.141 0,0 -0.198,1.5 -2.661,3.029 -0.714,0.443 -1.566,1.43 -2.038,2.888 -0.34,1.048 -0.234,1.982 -0.234,3.578 0,4.66 3.841,8.578 8.578,8.578 4.737,0 8.578,-3.953 8.578,-8.578 -0.002,-2.898 -0.305,-4.031 -1.041,-5.05 z"
           id="path12301" /><path
           fill="#c1694f"
           d="m 22.961,20.707 h -1.906 c -0.263,0 -0.477,-0.213 -0.477,-0.477 0,-0.264 0.213,-0.477 0.477,-0.477 h 1.906 c 0.263,0 0.477,0.213 0.477,0.477 0,0.264 -0.213,0.477 -0.477,0.477 z"
           id="path12303" /><path
           fill="#662113"
           d="m 18.195,17.37 c -0.526,0 -0.953,-0.427 -0.953,-0.953 v -0.953 c 0,-0.526 0.427,-0.953 0.953,-0.953 0.526,0 0.953,0.427 0.953,0.953 v 0.953 c 0,0.527 -0.426,0.953 -0.953,0.953 z m 7.626,0 c -0.526,0 -0.953,-0.427 -0.953,-0.953 v -0.953 c 0,-0.526 0.427,-0.953 0.953,-0.953 0.526,0 0.953,0.427 0.953,0.953 v 0.953 c 0,0.527 -0.427,0.953 -0.953,0.953 z"
           id="path12305" /><path
           fill="#c1694f"
           d="m 22.134,24.686 c -2.754,0 -3.6,-0.705 -3.741,-0.848 -0.256,-0.256 -0.256,-0.671 0,-0.927 0.248,-0.248 0.646,-0.255 0.902,-0.023 0.052,0.037 0.721,0.487 2.839,0.487 2.2,0 2.836,-0.485 2.842,-0.49 0.256,-0.255 0.657,-0.243 0.913,0.015 0.256,0.256 0.242,0.683 -0.014,0.938 -0.142,0.143 -0.987,0.848 -3.741,0.848"
           id="path12307" /><path
           fill="#f5f8fa"
           d="m 17.229,26.629 c 0.565,0.566 2.71,3.383 2.71,3.383 0,0 -1.188,0.695 -2.608,2.004 -0.516,0.476 -1.35,0.055 -1.287,-0.644 0.121,-1.349 0.249,-2.909 0.225,-3.534 -0.011,-0.303 0.69,-1.481 0.96,-1.209 m 9.433,0 c -0.565,0.566 -2.71,3.383 -2.71,3.383 0,0 1.188,0.695 2.608,2.004 0.516,0.476 1.35,0.055 1.287,-0.644 -0.121,-1.349 -0.249,-2.909 -0.225,-3.534 0.012,-0.303 -0.689,-1.481 -0.96,-1.209"
           id="path12309" /><g
           aria-label="2"
           transform="matrix(1.0049944,0,0,0.99503043,0.58440314,-4.0502644)"
           id="text421"
           style="font-weight:bold;font-size:6.97799px;font-family:'Varela Round';-inkscape-font-specification:'Varela Round Bold';text-align:center;text-anchor:middle;fill:#aadbc6;stroke-width:2.18065;stroke-dasharray:none"><path
             d="m 6.6274474,13.200464 q -0.1604938,0 -0.2651636,-0.09769 -0.1046699,-0.104669 -0.1046699,-0.265163 0,-0.369834 0.2023617,-0.662909 0.2023617,-0.300054 0.5163713,-0.544284 0.3209875,-0.251207 0.676865,-0.474503 Q 8.0090894,10.932617 8.323099,10.7163 8.6440865,10.493004 8.8464482,10.255752 9.04881,10.011523 9.04881,9.7254252 9.04881,9.3555917 8.7976023,9.111362 8.5533727,8.8601544 7.9462875,8.8601544 q -0.3558775,0 -0.6559311,0.076758 -0.3000535,0.06978 -0.5373052,0.1744497 -0.00698,0.00698 -0.048846,0.020934 -0.041868,0.013956 -0.083736,0.013956 -0.1116479,0 -0.1884057,-0.076758 -0.076758,-0.083736 -0.076758,-0.1953837 0,-0.1744498 0.1535157,-0.2581857 Q 6.8018971,8.4693869 7.1856866,8.3647171 7.576454,8.2600472 8.0579354,8.2600472 q 0.4465913,0 0.8094468,0.1814278 0.3628555,0.1744497 0.5791732,0.4954373 0.2163177,0.3140095 0.2163177,0.7396669 0,0.3558778 -0.1744498,0.6629088 -0.1744497,0.300054 -0.4605473,0.558239 -0.2791196,0.251208 -0.6070852,0.481482 -0.3279655,0.223296 -0.641975,0.425657 -0.3140096,0.202362 -0.5512613,0.404724 -0.2372516,0.195383 -0.3349435,0.397745 h 2.4283406 q 0.1256038,0 0.2093397,0.09071 0.090714,0.08374 0.090714,0.20934 0,0.125603 -0.090714,0.209339 -0.083736,0.08374 -0.2093397,0.08374 z"
             style="fill:#ffffff;stroke-width:2.18065;stroke-dasharray:none"
             id="path1240" /></g><g
           aria-label="4"
           transform="matrix(1.0049944,0,0,0.99503043,0.58440314,-4.0502644)"
           id="text421-35"
           style="font-weight:bold;font-size:6.97799px;font-family:'Varela Round';-inkscape-font-specification:'Varela Round Bold';text-align:center;text-anchor:middle;fill:#aadbc6;stroke-width:2.18065;stroke-dasharray:none"><path
             d="m 8.5254607,25.011712 q -0.1325818,0 -0.2232957,-0.09071 -0.090714,-0.09071 -0.090714,-0.223296 V 23.7487 H 6.083164 q -0.1674717,0 -0.2860976,-0.111648 -0.1186257,-0.11863 -0.1186257,-0.286102 v -0.0628 q 0,-0.146538 0.083736,-0.251207 l 2.1910889,-2.798174 q 0.055824,-0.07676 0.1465378,-0.118626 0.097692,-0.04885 0.2023617,-0.04885 h 0.1395598 q 0.1814277,0 0.2930756,0.118626 0.1116478,0.118625 0.1116478,0.286097 v 2.70746 h 0.5303273 q 0.1186258,0 0.2023617,0.08374 0.083736,0.08374 0.083736,0.202362 0,0.118626 -0.083736,0.202362 -0.083736,0.07676 -0.2023617,0.07676 H 8.8464482 v 0.949006 q 0,0.132582 -0.097692,0.223296 -0.090714,0.09071 -0.2232955,0.09071 z m -2.170155,-1.828234 h 1.8561454 v -2.39345 z"
             style="fill:#ffffff;stroke-width:2.18065;stroke-dasharray:none"
             id="path1397" /></g><g
           aria-label="x3"
           transform="matrix(1.0049944,0,0,0.99503043,0.58440314,-4.0502644)"
           id="text421-3"
           style="font-weight:bold;font-size:6.97799px;font-family:'Varela Round';-inkscape-font-specification:'Varela Round Bold';text-align:center;text-anchor:middle;fill:#aadbc6;stroke-width:2.18065;stroke-dasharray:none"><path
             d="m 2.6848805,18.626805 q -0.1325818,0 -0.2163177,-0.08374 -0.083736,-0.09071 -0.083736,-0.237251 0,-0.10467 0.06978,-0.195384 L 3.5361953,16.833462 2.4546068,15.514621 q -0.076758,-0.09769 -0.076758,-0.202361 0,-0.146538 0.090714,-0.230274 0.090714,-0.08374 0.2232957,-0.08374 0.1674718,0 0.2512076,0.118626 l 0.9769187,1.207192 0.9699406,-1.207192 q 0.083736,-0.118626 0.2442297,-0.118626 0.1395598,0 0.2302736,0.09071 0.090714,0.08374 0.090714,0.20934 0,0.10467 -0.06978,0.195384 l -1.1025224,1.297906 1.0885664,1.311862 q 0.041868,0.04885 0.055824,0.10467 0.020934,0.05582 0.020934,0.09769 0,0.118625 -0.083736,0.223295 -0.076758,0.09769 -0.2372516,0.09769 -0.1535158,0 -0.2442297,-0.125604 L 3.8920728,17.314943 2.9570221,18.487245 q -0.1046698,0.13956 -0.2721416,0.13956 z"
             style="fill:#ffffff;stroke-width:2.18065;stroke-dasharray:none"
             id="path1392" /><path
             d="m 7.8555738,18.661695 q -0.4675254,0 -0.8373589,-0.08374 -0.3628554,-0.09071 -0.6210411,-0.195384 -0.076758,-0.03489 -0.1325818,-0.09769 -0.048846,-0.06978 -0.048846,-0.167472 0,-0.111648 0.076758,-0.202362 0.076758,-0.09071 0.2023617,-0.09071 0.062802,0 0.1325818,0.02791 0.2093397,0.08374 0.4884593,0.146538 0.2791196,0.05582 0.6210411,0.05582 0.3070316,0 0.6001072,-0.0628 0.3000536,-0.06978 0.4954373,-0.237252 0.1953837,-0.167471 0.1953837,-0.474503 0,-0.258186 -0.1465378,-0.453569 Q 8.7348005,16.624122 8.399857,16.512474 8.0649135,16.400826 7.4857403,16.400826 H 7.3740924 q -0.1186258,0 -0.2093397,-0.08374 -0.083736,-0.09071 -0.083736,-0.209339 0,-0.118626 0.083736,-0.202362 0.090714,-0.09071 0.2093397,-0.09071 h 0.041868 q 0.683843,0 1.0606545,-0.20934 0.3768115,-0.209339 0.3768115,-0.634997 0,-0.327965 -0.2721417,-0.523349 -0.2721416,-0.202362 -0.8303808,-0.202362 -0.3279655,0 -0.6001071,0.06978 -0.2651637,0.0628 -0.4814814,0.160494 -0.027912,0.007 -0.055824,0.02093 -0.027912,0.007 -0.06978,0.007 -0.1046698,0 -0.1814277,-0.06978 -0.076758,-0.07676 -0.076758,-0.188406 0,-0.160494 0.1395598,-0.237251 0.2442296,-0.132582 0.5931291,-0.24423 0.3488996,-0.111648 0.7885129,-0.111648 0.8094469,0 1.2420823,0.327966 0.4396134,0.327965 0.4396134,0.928072 0,0.3489 -0.1325819,0.586152 -0.1256038,0.230273 -0.3209875,0.369833 -0.1884057,0.132582 -0.3907674,0.20934 0.1465377,0.03489 0.3209875,0.111648 0.1744498,0.07676 0.3349435,0.223295 0.1604938,0.13956 0.2581857,0.362856 0.1046698,0.223295 0.1046698,0.544283 0,0.446591 -0.2442296,0.746645 -0.2372517,0.293075 -0.6489531,0.446591 -0.4047235,0.153516 -0.9141167,0.153516 z"
             style="fill:#ffffff;stroke-width:2.18065;stroke-dasharray:none"
             id="path1394" /></g><text
           xml:space="preserve"
           style="font-style:normal;font-variant:normal;font-weight:bold;font-stretch:normal;font-size:6.97799px;font-family:'Varela Round';-inkscape-font-specification:'Varela Round Bold';text-align:center;text-anchor:middle;fill:#aadbc6;stroke-width:2.18062"
           x="5.4650497"
           y="22.82436"
           id="text421-7"
           transform="scale(1.0049944,0.99503043)"><tspan
             sodipodi:role="line"
             style="font-style:normal;font-variant:normal;font-weight:bold;font-stretch:normal;font-size:6.97799px;font-family:'Varela Round';-inkscape-font-specification:'Varela Round Bold';fill:#ffffff;fill-opacity:1;stroke-width:2.18062"
             x="5.4650497"
             y="22.82436"
             id="tspan1079-5" /></text><path
           style="fill:#ffffff;fill-opacity:1;stroke-width:2.18062"
           d="M 0.08605508,30.235432 -5.1087777,29.999999"
           id="path1208" /><path
           style="fill:#ffffff;fill-opacity:1;stroke:#ffffff;stroke-width:0.439558;stroke-linecap:round;stroke-dasharray:none;stroke-opacity:1"
           d="m 2.5102918,15.252714 7.5654652,-0.06545"
           id="path1210" /></g></g></g></svg>
