<?xml version="1.0" encoding="UTF-8" standalone="no"?>
<!-- Created with Inkscape (http://www.inkscape.org/) -->

<svg
   width="2000"
   height="2250"
   viewBox="0 0 529.1666 595.31281"
   version="1.1"
   id="svg437"
   xml:space="preserve"
   inkscape:version="1.2.2 (b0a8486541, 2022-12-01)"
   sodipodi:docname="first.svg"
   xmlns:inkscape="http://www.inkscape.org/namespaces/inkscape"
   xmlns:sodipodi="http://sodipodi.sourceforge.net/DTD/sodipodi-0.dtd"
   xmlns="http://www.w3.org/2000/svg"
   xmlns:svg="http://www.w3.org/2000/svg"><sodipodi:namedview
     id="namedview439"
     pagecolor="#ffffff"
     bordercolor="#000000"
     borderopacity="0.25"
     inkscape:showpageshadow="2"
     inkscape:pageopacity="0.0"
     inkscape:pagecheckerboard="0"
     inkscape:deskcolor="#d1d1d1"
     inkscape:document-units="mm"
     showgrid="false"
     showguides="true"
     inkscape:lockguides="false"
     inkscape:zoom="0.4204826"
     inkscape:cx="275.87348"
     inkscape:cy="1573.1923"
     inkscape:window-width="1920"
     inkscape:window-height="1176"
     inkscape:window-x="0"
     inkscape:window-y="0"
     inkscape:window-maximized="1"
     inkscape:current-layer="g954"><inkscape:grid
       type="xygrid"
       id="grid5299"
       spacingx="6.6145825"
       spacingy="6.6145825"
       originx="0"
       originy="0" /><sodipodi:guide
       position="0,595.31282"
       orientation="0,2000"
       id="guide5327"
       inkscape:locked="false" /><sodipodi:guide
       position="529.1666,595.31282"
       orientation="3000,0"
       id="guide5329"
       inkscape:locked="false" /><sodipodi:guide
       position="529.1666,-198.43708"
       orientation="0,-2000"
       id="guide5331"
       inkscape:locked="false" /><sodipodi:guide
       position="0,-198.43708"
       orientation="-3000,0"
       id="guide5333"
       inkscape:locked="false" /></sodipodi:namedview><defs
     id="defs434" /><g
     inkscape:label="Layer 1"
     inkscape:groupmode="layer"
     id="layer1"><g
       id="g954"
       transform="matrix(9.2586619,0,0,9.2586619,115.09276,88.093584)"><path
         style="opacity:1;fill:none;fill-opacity:1;stroke:#45a07a;stroke-width:2.14326;stroke-dasharray:none;stroke-dashoffset:0;stroke-opacity:1"
         d="M -8.858715,-2.3051347 V 29.8904 c 0,3.460139 2.3544412,5.141883 2.3544412,5.141883 l 19.0325328,13.594666 3.617761,2.584115 3.638266,-2.598761 18.692232,-13.351595 c 0,0 2.674237,-1.910169 2.674237,-5.367304 V -2.5555536 C 41.494129,-6.2827862 37.57865,-5.9426159 37.57865,-5.9426159 H -5.28661 c 0,0 -3.572105,-0.5340659 -3.572105,3.6374812 z"
         id="path5132"
         sodipodi:nodetypes="cccccccccccc" /><g
         id="g1709"
         transform="matrix(1.1668189,0,0,1.1668189,-4.8465842,-1.1155376)"><g
           id="g2856"><path
             fill="#55acee"
             d="M 18,8 11,0 H 0 l 14,17 11.521,-4.75 z"
             id="path1691"
             style="fill:#45a07a;fill-opacity:1" /><path
             fill="#3b88c3"
             d="m 25,0 -7,8 5.39,7.312 1.227,-1.489 L 36,0 Z"
             id="path1693"
             style="fill:#367a5e;fill-opacity:1" /><path
             fill="#ffac33"
             d="m 23.205,16.026 c 0.08,-0.217 0.131,-0.448 0.131,-0.693 0,-1.104 -0.896,-2 -2,-2 h -6.667 c -1.105,0 -2,0.896 -2,2 0,0.245 0.05,0.476 0.131,0.693 C 9.542,17.852 7.336,21.333 7.336,25.333 7.335,31.224 12.111,36 18.002,36 c 5.891,0 10.667,-4.776 10.667,-10.667 0,-4 -2.206,-7.481 -5.464,-9.307 z"
             id="path1695" /><path
             fill="#9e5200"
             d="m 19.404,18.6 h -1.721 l -2.73,2.132 c -0.056,0.056 -0.112,0.206 -0.112,0.28 v 1.178 c 0,0.186 0.15,0.354 0.337,0.354 h 1.795 v 8.414 c 0,0.188 0.15,0.355 0.355,0.355 h 2.076 c 0.186,0 0.336,-0.168 0.336,-0.355 V 18.954 c 0,-0.186 -0.149,-0.354 -0.336,-0.354 z"
             id="path1697"
             style="fill:#214b3a;fill-opacity:1" /></g></g></g></g></svg>
