<?xml version="1.0" encoding="UTF-8" standalone="no"?>
<!-- Created with Inkscape (http://www.inkscape.org/) -->

<svg
   width="2000"
   height="2250"
   viewBox="0 0 529.1666 595.31281"
   version="1.1"
   id="svg437"
   xml:space="preserve"
   inkscape:version="1.2.2 (b0a8486541, 2022-12-01)"
   sodipodi:docname="hibernation.svg"
   xmlns:inkscape="http://www.inkscape.org/namespaces/inkscape"
   xmlns:sodipodi="http://sodipodi.sourceforge.net/DTD/sodipodi-0.dtd"
   xmlns="http://www.w3.org/2000/svg"
   xmlns:svg="http://www.w3.org/2000/svg"><sodipodi:namedview
     id="namedview439"
     pagecolor="#ffffff"
     bordercolor="#000000"
     borderopacity="0.25"
     inkscape:showpageshadow="2"
     inkscape:pageopacity="0.0"
     inkscape:pagecheckerboard="0"
     inkscape:deskcolor="#d1d1d1"
     inkscape:document-units="mm"
     showgrid="false"
     showguides="true"
     inkscape:lockguides="false"
     inkscape:zoom="0.2102413"
     inkscape:cx="537.47765"
     inkscape:cy="1272.3475"
     inkscape:window-width="1920"
     inkscape:window-height="1176"
     inkscape:window-x="0"
     inkscape:window-y="0"
     inkscape:window-maximized="1"
     inkscape:current-layer="g947"><inkscape:grid
       type="xygrid"
       id="grid5299"
       spacingx="6.6145825"
       spacingy="6.6145825"
       originx="0"
       originy="0" /><sodipodi:guide
       position="0,595.31282"
       orientation="0,2000"
       id="guide5327"
       inkscape:locked="false" /><sodipodi:guide
       position="529.1666,595.31282"
       orientation="3000,0"
       id="guide5329"
       inkscape:locked="false" /><sodipodi:guide
       position="529.1666,-198.43708"
       orientation="0,-2000"
       id="guide5331"
       inkscape:locked="false" /><sodipodi:guide
       position="0,-198.43708"
       orientation="-3000,0"
       id="guide5333"
       inkscape:locked="false" /></sodipodi:namedview><defs
     id="defs434" /><g
     inkscape:label="Layer 1"
     inkscape:groupmode="layer"
     id="layer1"><g
       id="g954"
       transform="matrix(9.2586619,0,0,9.2586619,115.09276,88.093584)"><path
         style="opacity:1;fill:none;fill-opacity:1;stroke:#45a07a;stroke-width:2.14326;stroke-dasharray:none;stroke-dashoffset:0;stroke-opacity:1"
         d="M -8.858715,-2.3051347 V 29.8904 c 0,3.460139 2.3544412,5.141883 2.3544412,5.141883 l 19.0325328,13.594666 3.617761,2.584115 3.638266,-2.598761 18.692232,-13.351595 c 0,0 2.674237,-1.910169 2.674237,-5.367304 V -2.5555536 C 41.494129,-6.2827862 37.57865,-5.9426159 37.57865,-5.9426159 H -5.28661 c 0,0 -3.572105,-0.5340659 -3.572105,3.6374812 z"
         id="path5132"
         sodipodi:nodetypes="cccccccccccc" /><g
         id="g612"
         transform="matrix(1.0138852,0,0,0.99502969,-2.0937776,4.0734694)"><circle
           fill="#c1694f"
           cx="7"
           cy="6"
           r="6"
           id="circle582"
           style="fill:#45a07a;fill-opacity:1" /><circle
           fill="#c1694f"
           cx="29"
           cy="6"
           r="6"
           id="circle584"
           style="fill:#45a07a;fill-opacity:1" /><circle
           fill="#e6aaaa"
           cx="7"
           cy="6"
           r="4"
           id="circle586"
           style="fill:#c8c8c8;fill-opacity:1" /><circle
           fill="#e6aaaa"
           cx="29"
           cy="6"
           r="4"
           id="circle588"
           style="fill:#c8c8c8;fill-opacity:1" /><path
           fill="#c1694f"
           d="M 35,22 C 35,22 33.692,0 18,0 2.308,0 1,22 1,22 1,27.872 5.499,32.323 13.216,33.61 14.311,35.06 16.044,36 18,36 19.956,36 21.688,35.06 22.784,33.61 30.501,32.323 35,27.872 35,22 Z"
           id="path590"
           style="fill:#45a07a;fill-opacity:1" /><circle
           fill="#dd2e44"
           cx="18"
           cy="30"
           r="4"
           id="circle592"
           style="fill:#858585;fill-opacity:1" /><path
           fill="#d99e82"
           d="m 18,20 c 0,0 -11,3.687 -11,7 0,3.313 2.687,6 6,6 2.088,0 3.925,-1.067 5,-2.685 1.074,1.618 2.912,2.685 5,2.685 3.313,0 6,-2.687 6,-6 0,-3.313 -11,-7 -11,-7 z"
           id="path594"
           style="fill:#aeadad;fill-opacity:1" /><path
           fill="#272b2b"
           d="m 13.125,25 c -1.624,1 3.25,4 4.875,4 1.625,0 6.499,-3 4.874,-4 -1.625,-1 -8.124,-1 -9.749,0 z"
           id="path596"
           sodipodi:nodetypes="cssc" /><path
           fill="#664500"
           d="m 15.751977,17.55669 c -0.137841,-0.111996 -0.334421,-0.115128 -0.477744,-0.01096 -0.0094,0.007 -0.986817,0.706435 -2.89936,0.706435 -1.911761,0 -2.8899619,-0.699387 -2.8977938,-0.704869 -0.1433233,-0.107297 -0.3406865,-0.104164 -0.4785275,0.007 -0.1394074,0.111212 -0.1863986,0.30231 -0.1143454,0.465213 0.046991,0.10573 1.1747807,2.582169 3.4906667,2.582169 2.316668,0 3.443675,-2.476439 3.490666,-2.582169 0.07205,-0.16212 0.02506,-0.351651 -0.113562,-0.462864 z m 7.831874,0 c -0.137841,-0.111996 -0.333637,-0.115912 -0.477744,-0.01096 -0.0094,0.007 -0.987599,0.706435 -2.89936,0.706435 -1.910977,0 -2.889962,-0.699387 -2.897793,-0.704869 -0.143324,-0.107297 -0.339904,-0.104164 -0.478528,0.007 -0.139407,0.111212 -0.186399,0.30231 -0.114345,0.465213 0.04699,0.10573 1.174781,2.582169 3.490666,2.582169 2.316669,0 3.443675,-2.476439 3.490667,-2.582169 0.07205,-0.16212 0.02506,-0.351651 -0.113563,-0.462864 z"
           id="path814"
           style="fill:#272b2b;fill-opacity:1;stroke-width:0.783187"
           transform="matrix(1.1508393,0,0,1.1726473,-0.53657146,-4.3073391)" /></g><g
         id="g947"
         transform="matrix(1.1707765,0,0,1.1707765,-11.888845,15.12166)"><path
           fill="#ffac33"
           d="m 41.97712,-1.6596347 c 0.004,-0.044 0.023,-0.077 0.023,-0.123 0,-0.754 -0.548,-1.188 -1.225,-1.188 h -3.582 l 4.279,-5.993 c 0.206,-0.283 0.282,-0.453 0.282,-0.811 0,-0.7350003 -0.64,-0.8490003 -0.885,-0.8490003 h -5.349 l -0.032,-0.688 c 0,0 -1.409,0.831 -1.503,0.888 -0.094,0.057 -0.505,0.372 -0.505,0.9870003 0,0.754 0.546,1.187 1.225,1.187 h 3.149 l -4.261,5.993 c -0.094,0.151 -0.244,0.433 -0.244,0.735 0,0.62200001 0.508,0.92400001 1.111,0.92400001 h 6.315 c 0.258,0 0.515,-0.076 0.681,-0.176 l 1.503,-0.88800001 h -0.982 z"
           id="path816"
           style="fill:#398566;fill-opacity:1" /><path
           fill="#2a6797"
           d="m 39.31812,-9.1096347 h -3.149 c -0.679,0 -1.225,-0.433 -1.225,-1.1870003 0,-0.754 0.546,-1.188 1.225,-1.188 h 6.164 c 0.245,0 0.885,0.113 0.885,0.848 0,0.358 -0.076,0.528 -0.282,0.8110003 l -4.279,5.993 h 3.582 c 0.677,0 1.225,0.433 1.225,1.187 0,0.754 -0.548,1.187 -1.225,1.187 h -6.315 c -0.603,0 -1.111,-0.302 -1.111,-0.924 0,-0.302 0.15,-0.584 0.244,-0.735 z"
           id="path818" /><path
           fill="#ffac33"
           d="m 32.43312,-6.7136347 c 0.003,-0.033 0.018,-0.058 0.018,-0.092 0,-0.564 -0.41,-0.889 -0.917,-0.889 h -2.682 l 3.203,-4.4870003 c 0.156,-0.212 0.212,-0.339 0.212,-0.606 0,-0.55 -0.479,-0.635 -0.663,-0.635 h -4.004 l -0.024,-0.515 c 0,0 -1.055,0.622 -1.125,0.665 -0.07,0.043 -0.378,0.279 -0.378,0.739 0,0.564 0.409,0.889 0.917,0.889 h 2.357 l -3.19,4.4870003 c -0.07,0.113 -0.183,0.324 -0.183,0.55 0,0.466 0.38,0.691 0.832,0.691 h 4.728 c 0.193,0 0.385,-0.057 0.51,-0.132 l 1.125,-0.665 z"
           id="path820"
           style="fill:#398566;fill-opacity:1" /><path
           fill="#2a6797"
           d="m 30.44312,-12.290635 h -2.357 c -0.508,0 -0.917,-0.324 -0.917,-0.889 0,-0.564 0.409,-0.889 0.917,-0.889 h 4.615 c 0.184,0 0.663,0.085 0.663,0.635 0,0.268 -0.057,0.395 -0.211,0.607 l -3.203,4.4870003 h 2.682 c 0.505,0 0.915,0.324 0.915,0.889 0,0.565 -0.41,0.889 -0.917,0.889 h -4.728 c -0.452,0 -0.832,-0.226 -0.832,-0.691 0,-0.226 0.113,-0.437 0.183,-0.55 z"
           id="path822" /><path
           fill="#ffac33"
           d="m 25.28812,-3.7686347 c 0.003,-0.028 0.015,-0.049 0.015,-0.079 0,-0.483 -0.351,-0.761 -0.785,-0.761 h -2.295 l 2.742,-3.84 c 0.132,-0.181 0.181,-0.29 0.181,-0.519 0,-0.471 -0.41,-0.544 -0.567,-0.544 h -3.427 l -0.021,-0.441 -0.963,0.569 c -0.06,0.037 -0.324,0.238 -0.324,0.633 0,0.483 0.35,0.761 0.785,0.761 h 2.017 l -2.73,3.84 c -0.06,0.097 -0.157,0.278 -0.157,0.471 0,0.399 0.326,0.592 0.712,0.592 h 4.047 c 0.165,0 0.33,-0.049 0.436,-0.113 l 0.963,-0.569 z"
           id="path824"
           style="fill:#398566;fill-opacity:1" /><path
           fill="#2a6797"
           d="m 23.58412,-8.5416347 h -2.017 c -0.435,0 -0.785,-0.278 -0.785,-0.761 0,-0.483 0.35,-0.7610003 0.785,-0.7610003 h 3.95 c 0.157,0 0.567,0.073 0.567,0.5440003 0,0.229 -0.048,0.338 -0.181,0.519 l -2.742,3.84 h 2.295 c 0.434,0 0.785,0.278 0.785,0.761 0,0.483 -0.351,0.761 -0.785,0.761 h -4.047 c -0.386,0 -0.712,-0.193 -0.712,-0.592 0,-0.193 0.096,-0.374 0.157,-0.471 z"
           id="path826" /></g></g></g></svg>
