<?xml version="1.0" encoding="UTF-8" standalone="no"?>
<!-- Created with Inkscape (http://www.inkscape.org/) -->

<svg
   width="2000"
   height="2250"
   viewBox="0 0 529.1666 595.31281"
   version="1.1"
   id="svg437"
   xml:space="preserve"
   inkscape:version="1.2.2 (b0a8486541, 2022-12-01)"
   sodipodi:docname="infinity-rat.svg"
   xmlns:inkscape="http://www.inkscape.org/namespaces/inkscape"
   xmlns:sodipodi="http://sodipodi.sourceforge.net/DTD/sodipodi-0.dtd"
   xmlns="http://www.w3.org/2000/svg"
   xmlns:svg="http://www.w3.org/2000/svg"><sodipodi:namedview
     id="namedview439"
     pagecolor="#ffffff"
     bordercolor="#000000"
     borderopacity="0.25"
     inkscape:showpageshadow="2"
     inkscape:pageopacity="0.0"
     inkscape:pagecheckerboard="0"
     inkscape:deskcolor="#d1d1d1"
     inkscape:document-units="mm"
     showgrid="false"
     showguides="true"
     inkscape:lockguides="false"
     inkscape:zoom="0.35355339"
     inkscape:cx="616.59711"
     inkscape:cy="1274.2064"
     inkscape:window-width="1920"
     inkscape:window-height="1176"
     inkscape:window-x="0"
     inkscape:window-y="0"
     inkscape:window-maximized="1"
     inkscape:current-layer="g954"><inkscape:grid
       type="xygrid"
       id="grid5299"
       spacingx="6.6145825"
       spacingy="6.6145825"
       originx="0"
       originy="0" /><sodipodi:guide
       position="0,595.31282"
       orientation="0,2000"
       id="guide5327"
       inkscape:locked="false" /><sodipodi:guide
       position="529.1666,595.31282"
       orientation="3000,0"
       id="guide5329"
       inkscape:locked="false" /><sodipodi:guide
       position="529.1666,-198.43708"
       orientation="0,-2000"
       id="guide5331"
       inkscape:locked="false" /><sodipodi:guide
       position="0,-198.43708"
       orientation="-3000,0"
       id="guide5333"
       inkscape:locked="false" /></sodipodi:namedview><defs
     id="defs434" /><g
     inkscape:label="Layer 1"
     inkscape:groupmode="layer"
     id="layer1"><g
       id="g954"
       transform="matrix(9.2586619,0,0,9.2586619,115.09276,88.093584)"><path
         style="opacity:1;fill:none;fill-opacity:1;stroke:#45a07a;stroke-width:2.14326;stroke-dasharray:none;stroke-dashoffset:0;stroke-opacity:1"
         d="M -8.858715,-2.3051347 V 29.8904 c 0,3.460139 2.3544412,5.141883 2.3544412,5.141883 l 19.0325328,13.594666 3.617761,2.584115 3.638266,-2.598761 18.692232,-13.351595 c 0,0 2.674237,-1.910169 2.674237,-5.367304 V -2.5555536 C 41.494129,-6.2827862 37.57865,-5.9426159 37.57865,-5.9426159 H -5.28661 c 0,0 -3.572105,-0.5340659 -3.572105,3.6374812 z"
         id="path5132"
         sodipodi:nodetypes="cccccccccccc" /><g
         id="g621"
         transform="matrix(0.92226698,0,0,0.92226698,-1.6969142,-7.5453876)"><g
           id="g2389"
           transform="matrix(1.234878,0,0,1.234878,-3.9632308,-4.9081382)"><path
             fill="#ea596e"
             d="m 6,36 h 15.324078 c 0.552,0 1,-0.447 1,-1 0,-0.553 -0.448,-1 -1,-1 H 6 C 3.458,34 2,32.633 2,30.25 2,28.713 3.643,27 6,27 h 7 c 0.553,0 1,-0.447 1,-1 0,-0.553 -0.447,-1 -1,-1 H 6 C 2.411,25 0,27.715 0,30.25 0,33.743 2.355,36 6,36 Z"
             id="path594"
             style="fill:#7f8e98;fill-opacity:1"
             sodipodi:nodetypes="sssssssssssss" /><path
             fill="#66757f"
             d="m 24,24.5 c 0,-3.037 -3.604,-5.938 -1,-7.5 3.407,-2.044 6.879,4.293 9,5 3,1 4,3.407 4,5 0,1.838 -1.986,1.725 -5,2 -1.906,0.175 -5.594,0.125 -9,1 -2.942,0.756 2,-2.462 2,-5.5 z"
             id="path596"
             style="fill:#45a07a;fill-opacity:1" /><path
             fill="#66757f"
             d="M 3,23.5 C 3,15 6.753,11 12,11 c 10,0 14,7 14,14 0,5.247 -6.753,6 -12,6 C 8.753,31 3,28.747 3,23.5 Z"
             id="path598"
             style="fill:#45a07a;fill-opacity:1" /><path
             fill="#66757f"
             d="m 26.219,17.844 c 0,-2.594 2.375,-3.219 1.188,-5.031 -0.706,-1.078 -2.588,-0.635 -3.051,-0.582 0.037,1.332 -1.605,1.875 -2.054,1.049 -0.378,0.372 -0.71,0.83 -0.962,1.361 -0.914,1.923 0.461,4.49 1.958,5.201 1.494,0.711 2.921,0.132 2.921,-1.998 z"
             id="path600"
             style="fill:#45a07a;fill-opacity:1" /><path
             fill="#e6aaaa"
             d="m 22.367,16.14 c -0.084,1.279 0.481,2.67 1.396,2.915 0.914,0.246 1.277,-0.728 1.608,-1.961 0.331,-1.233 0.95,-2.686 0.036,-2.932 -0.915,-0.246 -2.931,0.317 -3.04,1.978 z"
             id="path602"
             style="fill:#6e7f8a;fill-opacity:1" /><circle
             fill="#292f33"
             cx="-28"
             cy="23"
             r="1"
             id="circle604"
             transform="scale(-1,1)" /><path
             fill="#66757f"
             d="m 25.406,18.312 c 1.26,-1.717 2.834,-1.977 4.49,-1.979 0.729,0 0.687,0.479 0.104,0.542 -1.076,0.115 -1.963,0.406 -2.077,0.667 -0.076,0.175 0.702,-0.042 1.431,-0.042 1.167,0 1.042,0.298 0.167,0.521 -1.875,0.479 -1.833,1.219 -2.896,1.188 -1.063,-0.033 -1.219,-0.897 -1.219,-0.897 z M 9.558,11.325 c 1.65,-0.616 3.942,-2.241 6.192,-1.991 0.751,0.083 0.462,0.519 0,0.625 -0.609,0.141 -1.438,0.704 -1.731,0.933 -0.281,0.219 2.314,-0.558 4.065,0.109 0.872,0.332 0.514,0.562 -0.031,0.5 -0.816,-0.094 -1.609,0.172 -2.641,0.797 -1.031,0.624 -6.932,-0.571 -5.854,-0.973 z"
             id="path606"
             style="fill:#45a07a;fill-opacity:1" /><path
             style="fill:#7f8e98;fill-opacity:1;stroke:#7f8e98;stroke-width:2.32394;stroke-linecap:round;stroke-opacity:1"
             d="M 22.324083,35.000007 19.933662,32.036538"
             id="path1852" /><path
             style="fill:#7f8e98;fill-opacity:1;stroke:#7f8e98;stroke-width:2.32394;stroke-linecap:round;stroke-opacity:1"
             d="m 22.324083,35.000007 -2.390421,2.963469"
             id="path1852-3" /><g
             aria-label="∞ "
             id="text2198"
             style="font-weight:bold;font-size:20.657px;-inkscape-font-specification:'sans-serif Bold';text-align:center;text-anchor:middle;fill:#7f8e98;stroke-width:2.32394;stroke-linecap:round"><path
               d="m 31.053041,33.351904 q 0.746396,-1.402014 1.341495,-1.946681 0.786741,-0.736309 1.987026,-0.736309 1.452445,0 2.390482,1.139766 0.998557,1.200285 0.998557,3.146965 0,1.886162 -0.998557,3.167138 -0.887605,1.119593 -2.390482,1.119593 -0.776655,0 -1.351581,-0.322766 -0.56484,-0.322765 -1.119594,-1.008642 -0.595099,-0.857346 -0.837173,-1.371754 -0.746396,1.402013 -1.341495,1.94668 -0.786741,0.736309 -1.987025,0.736309 -1.452446,0 -2.390483,-1.139766 -0.998556,-1.200284 -0.998556,-3.146965 0,-1.886161 0.998556,-3.167137 0.887605,-1.119593 2.390483,-1.119593 0.776654,0 1.341494,0.322765 0.574926,0.322766 1.12968,1.008643 0.595099,0.857346 0.837173,1.371754 z m -3.368866,3.822755 q 1.391927,0 2.471174,-2.037458 -1.371754,-2.451002 -2.471174,-2.451002 -0.907778,0 -1.361668,0.635445 -0.494234,0.70605 -0.494234,1.613828 0,0.98847 0.494234,1.613828 0.494235,0.625359 1.361668,0.625359 z m 6.757905,-4.4582 q -1.391927,0 -2.471174,2.037458 1.371754,2.451001 2.471174,2.451001 0.907778,0 1.361668,-0.635445 0.494234,-0.706049 0.494234,-1.613828 0,-0.988469 -0.494234,-1.613828 -0.494235,-0.625358 -1.361668,-0.625358 z"
               id="path2375" /></g></g></g></g></g></svg>
