<?xml version="1.0" encoding="UTF-8" standalone="no"?>
<!-- Created with Inkscape (http://www.inkscape.org/) -->

<svg
   width="2000"
   height="2250"
   viewBox="0 0 529.1666 595.31281"
   version="1.1"
   id="svg437"
   xml:space="preserve"
   inkscape:version="1.2.2 (b0a8486541, 2022-12-01)"
   sodipodi:docname="math.svg"
   xmlns:inkscape="http://www.inkscape.org/namespaces/inkscape"
   xmlns:sodipodi="http://sodipodi.sourceforge.net/DTD/sodipodi-0.dtd"
   xmlns="http://www.w3.org/2000/svg"
   xmlns:svg="http://www.w3.org/2000/svg"><sodipodi:namedview
     id="namedview439"
     pagecolor="#ffffff"
     bordercolor="#000000"
     borderopacity="0.25"
     inkscape:showpageshadow="2"
     inkscape:pageopacity="0.0"
     inkscape:pagecheckerboard="0"
     inkscape:deskcolor="#d1d1d1"
     inkscape:document-units="mm"
     showgrid="false"
     showguides="true"
     inkscape:lockguides="false"
     inkscape:zoom="0.2973261"
     inkscape:cx="625.57576"
     inkscape:cy="1040.9446"
     inkscape:window-width="1920"
     inkscape:window-height="1176"
     inkscape:window-x="0"
     inkscape:window-y="0"
     inkscape:window-maximized="1"
     inkscape:current-layer="g954"><inkscape:grid
       type="xygrid"
       id="grid5299"
       spacingx="6.6145825"
       spacingy="6.6145825"
       originx="0"
       originy="0" /><sodipodi:guide
       position="0,595.31282"
       orientation="0,2000"
       id="guide5327"
       inkscape:locked="false" /><sodipodi:guide
       position="529.1666,595.31282"
       orientation="3000,0"
       id="guide5329"
       inkscape:locked="false" /><sodipodi:guide
       position="529.1666,-198.43708"
       orientation="0,-2000"
       id="guide5331"
       inkscape:locked="false" /><sodipodi:guide
       position="0,-198.43708"
       orientation="-3000,0"
       id="guide5333"
       inkscape:locked="false" /></sodipodi:namedview><defs
     id="defs434" /><g
     inkscape:label="Layer 1"
     inkscape:groupmode="layer"
     id="layer1"><g
       id="g954"
       transform="matrix(9.2586619,0,0,9.2586619,115.09276,88.093584)"><path
         style="opacity:1;fill:none;fill-opacity:1;stroke:#45a07a;stroke-width:2.14326;stroke-dasharray:none;stroke-dashoffset:0;stroke-opacity:1"
         d="M -8.858715,-2.3051347 V 29.8904 c 0,3.460139 2.3544412,5.141883 2.3544412,5.141883 l 19.0325328,13.594666 3.617761,2.584115 3.638266,-2.598761 18.692232,-13.351595 c 0,0 2.674237,-1.910169 2.674237,-5.367304 V -2.5555536 C 41.494129,-6.2827862 37.57865,-5.9426159 37.57865,-5.9426159 H -5.28661 c 0,0 -3.572105,-0.5340659 -3.572105,3.6374812 z"
         id="path5132"
         sodipodi:nodetypes="cccccccccccc" /><g
         id="g11071"
         transform="matrix(0.97178574,0,0,0.97178574,-1.3359873,-1.0472901)"><path
           fill="#ccd6dd"
           d="m 3,16 v -2 h 30 v 2 z m 0,7 v -2 h 30 v 2 z m 0,7 v -2 h 30 v 2 z M 3,9 V 7 h 30 v 2 z"
           id="path11032" /><path
           fill="#d5ab88"
           d="M 35,33 V 1 C 35,0.448 34.552,0 34,0 H 33 C 32.448,0 32,0.448 32,1 H 4 C 4,0.448 3.552,0 3,0 H 2 C 1.448,0 1,0.448 1,1 V 33 Z M 4,4 H 32 V 33 H 4 Z"
           id="path11034"
           style="fill:#45a07a;fill-opacity:1" /><path
           fill="#3b94d9"
           d="M 19,5.5 C 18.171,5.5 17.5,6.171 17.5,7 17.5,6.171 16.829,5.5 16,5.5 15.171,5.5 14.5,6.171 14.5,7 14.5,6.171 13.829,5.5 13,5.5 12.171,5.5 11.5,6.171 11.5,7 11.5,6.171 10.829,5.5 10,5.5 9.171,5.5 8.5,6.171 8.5,7 8.5,6.171 7.829,5.5 7,5.5 6.171,5.5 5.5,6.171 5.5,7 v 2 c 0,0.829 0.671,1.5 1.5,1.5 0.829,0 1.5,-0.671 1.5,-1.5 0,0.829 0.671,1.5 1.5,1.5 0.829,0 1.5,-0.671 1.5,-1.5 0,0.829 0.671,1.5 1.5,1.5 0.829,0 1.5,-0.671 1.5,-1.5 0,0.829 0.671,1.5 1.5,1.5 0.829,0 1.5,-0.671 1.5,-1.5 0,0.829 0.671,1.5 1.5,1.5 0.828,0 1.5,-0.671 1.5,-1.5 V 7 C 20.5,6.171 19.828,5.5 19,5.5 Z"
           id="path11036" /><path
           fill="#be1931"
           d="m 19,12.5 c -0.829,0 -1.5,0.671 -1.5,1.5 0,-0.829 -0.671,-1.5 -1.5,-1.5 -0.829,0 -1.5,0.671 -1.5,1.5 0,-0.829 -0.671,-1.5 -1.5,-1.5 -0.829,0 -1.5,0.671 -1.5,1.5 0,-0.829 -0.671,-1.5 -1.5,-1.5 -0.829,0 -1.5,0.671 -1.5,1.5 0,-0.829 -0.671,-1.5 -1.5,-1.5 -0.829,0 -1.5,0.671 -1.5,1.5 v 2 c 0,0.829 0.671,1.5 1.5,1.5 0.829,0 1.5,-0.671 1.5,-1.5 0,0.829 0.671,1.5 1.5,1.5 0.829,0 1.5,-0.671 1.5,-1.5 0,0.829 0.671,1.5 1.5,1.5 0.829,0 1.5,-0.671 1.5,-1.5 0,0.829 0.671,1.5 1.5,1.5 0.829,0 1.5,-0.671 1.5,-1.5 0,0.829 0.671,1.5 1.5,1.5 0.828,0 1.5,-0.671 1.5,-1.5 v -2 c 0,-0.829 -0.672,-1.5 -1.5,-1.5 z"
           id="path11038" /><path
           fill="#5c913b"
           d="m 19,19.5 c -0.829,0 -1.5,0.672 -1.5,1.5 0,-0.828 -0.671,-1.5 -1.5,-1.5 -0.829,0 -1.5,0.672 -1.5,1.5 0,-0.828 -0.671,-1.5 -1.5,-1.5 -0.829,0 -1.5,0.672 -1.5,1.5 0,-0.828 -0.671,-1.5 -1.5,-1.5 -0.829,0 -1.5,0.672 -1.5,1.5 0,-0.828 -0.671,-1.5 -1.5,-1.5 -0.829,0 -1.5,0.672 -1.5,1.5 v 2 c 0,0.828 0.671,1.5 1.5,1.5 0.829,0 1.5,-0.672 1.5,-1.5 0,0.828 0.671,1.5 1.5,1.5 0.829,0 1.5,-0.672 1.5,-1.5 0,0.828 0.671,1.5 1.5,1.5 0.829,0 1.5,-0.672 1.5,-1.5 0,0.828 0.671,1.5 1.5,1.5 0.829,0 1.5,-0.672 1.5,-1.5 0,0.828 0.671,1.5 1.5,1.5 0.828,0 1.5,-0.672 1.5,-1.5 v -2 c 0,-0.828 -0.672,-1.5 -1.5,-1.5 z"
           id="path11040" /><path
           fill="#ffac33"
           d="m 19,26.5 c -0.829,0 -1.5,0.672 -1.5,1.5 0,-0.828 -0.671,-1.5 -1.5,-1.5 -0.829,0 -1.5,0.672 -1.5,1.5 0,-0.828 -0.671,-1.5 -1.5,-1.5 -0.829,0 -1.5,0.672 -1.5,1.5 0,-0.828 -0.671,-1.5 -1.5,-1.5 -0.829,0 -1.5,0.672 -1.5,1.5 0,-0.828 -0.671,-1.5 -1.5,-1.5 -0.829,0 -1.5,0.672 -1.5,1.5 v 2 c 0,0.828 0.671,1.5 1.5,1.5 0.829,0 1.5,-0.672 1.5,-1.5 0,0.828 0.671,1.5 1.5,1.5 0.829,0 1.5,-0.672 1.5,-1.5 0,0.828 0.671,1.5 1.5,1.5 0.829,0 1.5,-0.672 1.5,-1.5 0,0.828 0.671,1.5 1.5,1.5 0.829,0 1.5,-0.672 1.5,-1.5 0,0.828 0.671,1.5 1.5,1.5 0.828,0 1.5,-0.672 1.5,-1.5 v -2 c 0,-0.828 -0.672,-1.5 -1.5,-1.5 z"
           id="path11042" /><path
           fill="#3b94d9"
           d="M 29,10.5 C 28.172,10.5 27.5,9.829 27.5,9 V 7 c 0,-0.829 0.672,-1.5 1.5,-1.5 0.828,0 1.5,0.671 1.5,1.5 v 2 c 0,0.829 -0.672,1.5 -1.5,1.5 z"
           id="path11044" /><path
           fill="#be1931"
           d="m 29,17.5 c -0.828,0 -1.5,-0.671 -1.5,-1.5 v -2 c 0,-0.829 0.672,-1.5 1.5,-1.5 0.828,0 1.5,0.671 1.5,1.5 v 2 c 0,0.829 -0.672,1.5 -1.5,1.5 z"
           id="path11046" /><path
           fill="#5c913b"
           d="m 29,24.5 c -0.828,0 -1.5,-0.672 -1.5,-1.5 v -2 c 0,-0.828 0.672,-1.5 1.5,-1.5 0.828,0 1.5,0.672 1.5,1.5 v 2 c 0,0.828 -0.672,1.5 -1.5,1.5 z"
           id="path11048" /><path
           fill="#ffac33"
           d="m 29,31.5 c -0.828,0 -1.5,-0.672 -1.5,-1.5 v -2 c 0,-0.828 0.672,-1.5 1.5,-1.5 0.828,0 1.5,0.672 1.5,1.5 v 2 c 0,0.828 -0.672,1.5 -1.5,1.5 z"
           id="path11050" /><path
           fill="#bf6952"
           d="M 35,33 H 1 c -0.552,0 -1,0.448 -1,1 v 1 c 0,0.552 0.448,1 1,1 h 34 c 0.552,0 1,-0.448 1,-1 v -1 c 0,-0.552 -0.448,-1 -1,-1 z"
           id="path11052"
           style="fill:#2a624b;fill-opacity:1" /></g></g></g></svg>
