<?xml version="1.0" encoding="UTF-8" standalone="no"?>
<!-- Created with Inkscape (http://www.inkscape.org/) -->

<svg
   width="2000"
   height="2250"
   viewBox="0 0 529.1666 595.31281"
   version="1.1"
   id="svg437"
   xml:space="preserve"
   inkscape:version="1.2.2 (b0a8486541, 2022-12-01)"
   sodipodi:docname="night-owl.svg"
   inkscape:export-filename="nth-root.png"
   inkscape:export-xdpi="48"
   inkscape:export-ydpi="48"
   xmlns:inkscape="http://www.inkscape.org/namespaces/inkscape"
   xmlns:sodipodi="http://sodipodi.sourceforge.net/DTD/sodipodi-0.dtd"
   xmlns="http://www.w3.org/2000/svg"
   xmlns:svg="http://www.w3.org/2000/svg"><sodipodi:namedview
     id="namedview439"
     pagecolor="#ffffff"
     bordercolor="#000000"
     borderopacity="0.25"
     inkscape:showpageshadow="2"
     inkscape:pageopacity="0.0"
     inkscape:pagecheckerboard="0"
     inkscape:deskcolor="#d1d1d1"
     inkscape:document-units="mm"
     showgrid="false"
     showguides="true"
     inkscape:lockguides="false"
     inkscape:zoom="0.2973261"
     inkscape:cx="642.39231"
     inkscape:cy="1579.0743"
     inkscape:window-width="1920"
     inkscape:window-height="1176"
     inkscape:window-x="0"
     inkscape:window-y="0"
     inkscape:window-maximized="1"
     inkscape:current-layer="g954"><inkscape:grid
       type="xygrid"
       id="grid5299"
       spacingx="6.6145825"
       spacingy="6.6145825"
       originx="0"
       originy="0" /><sodipodi:guide
       position="0,595.31282"
       orientation="0,2000"
       id="guide5327"
       inkscape:locked="false" /><sodipodi:guide
       position="529.1666,595.31282"
       orientation="3000,0"
       id="guide5329"
       inkscape:locked="false" /><sodipodi:guide
       position="529.1666,-198.43708"
       orientation="0,-2000"
       id="guide5331"
       inkscape:locked="false" /><sodipodi:guide
       position="0,-198.43708"
       orientation="-3000,0"
       id="guide5333"
       inkscape:locked="false" /></sodipodi:namedview><defs
     id="defs434" /><g
     inkscape:label="Layer 1"
     inkscape:groupmode="layer"
     id="layer1"><g
       id="g954"
       transform="matrix(9.2586619,0,0,9.2586619,115.09276,88.093584)"><path
         style="opacity:1;fill:none;fill-opacity:1;stroke:#45a07a;stroke-width:2.14326;stroke-dasharray:none;stroke-dashoffset:0;stroke-opacity:1"
         d="M -8.858715,-2.3051347 V 29.8904 c 0,3.460139 2.3544412,5.141883 2.3544412,5.141883 l 19.0325328,13.594666 3.617761,2.584115 3.638266,-2.598761 18.692232,-13.351595 c 0,0 2.674237,-1.910169 2.674237,-5.367304 V -2.5555536 C 41.494129,-6.2827862 37.57865,-5.9426159 37.57865,-5.9426159 H -5.28661 c 0,0 -3.572105,-0.5340659 -3.572105,3.6374812 z"
         id="path5132"
         sodipodi:nodetypes="cccccccccccc" /><g
         id="g3460"
         transform="matrix(1.1339013,0,0,1.1339013,-0.7086906,-2.1114487)"><g
           id="g4093"
           transform="translate(-3.1147067,-0.26190422)"><path
             fill="#662113"
             d="m 7.317,11 c -5.723,9.083 0.958,18 0.958,18 0,0 2.874,-0.442 6.875,-5.2 C 19.15,19.042 7.317,11 7.317,11 Z m 21.342,0 c 5.723,9.083 -0.958,18 -0.958,18 0,0 -2.874,-0.442 -6.875,-5.2 C 16.825,19.042 28.659,11 28.659,11 Z"
             id="path3421"
             style="fill:#3d3d3d;fill-opacity:1" /><path
             fill="#ffac33"
             d="m 15.203,31.557 c -0.123,-0.229 -0.317,-0.384 -0.531,-0.496 -2.032,-2.172 -0.589,-4.717 -0.589,-4.717 0,-0.703 1.271,-2.544 0,-2.544 l -1.272,1.272 c -1.272,1.271 -1.272,5.089 -1.272,5.089 H 8.995 c -0.703,0 -1.272,0.568 -1.272,1.272 0,0.701 0.569,1.271 1.272,1.271 h 1.408 l -0.282,0.153 c -0.618,0.334 -0.848,1.105 -0.514,1.726 0.334,0.616 1.106,0.848 1.724,0.514 l 3.357,-1.816 c 0.619,-0.334 0.846,-1.105 0.515,-1.724 z m 5.596,0 c 0.123,-0.229 0.317,-0.384 0.53,-0.496 2.033,-2.172 0.589,-4.717 0.589,-4.717 0,-0.703 -1.271,-2.544 0,-2.544 l 1.272,1.272 c 1.273,1.271 1.273,5.089 1.273,5.089 h 2.544 c 0.704,0 1.271,0.568 1.271,1.272 0,0.701 -0.566,1.271 -1.271,1.271 h -1.408 l 0.281,0.153 c 0.62,0.334 0.848,1.105 0.515,1.726 -0.336,0.616 -1.105,0.848 -1.726,0.514 l -3.356,-1.816 c -0.619,-0.334 -0.847,-1.105 -0.514,-1.724 z"
             id="path3423"
             style="fill:#999999;fill-opacity:1" /><path
             fill="#662113"
             d="m 28.278,11.292 c 2.891,-6.092 0,-10.542 0,-10.542 0,0 -5.781,0.959 -6.744,2.875 -1.219,2.424 6.744,7.667 6.744,7.667 z"
             id="path3425"
             style="fill:#3d3d3d;fill-opacity:1" /><path
             fill="#662113"
             d="M 29.562,12.738 C 29.562,23.035 26.41,33.333 18,33.333 9.591,33.333 6.437,23.035 6.437,12.738 6.437,2.44 11.614,2.083 18,2.083 c 6.387,0 11.562,0.357 11.562,10.655 z"
             id="path3427"
             style="fill:#3d3d3d;fill-opacity:1" /><path
             fill="#c1694f"
             d="m 27.666,17.738 c 0,10.297 -7.774,14.595 -9.666,14.595 -1.892,0 -9.666,-4.298 -9.666,-14.595 0,-10.298 19.332,-10.298 19.332,0 z"
             id="path3429"
             style="fill:#45a07a;fill-opacity:1" /><path
             fill="#662113"
             d="m 7.722,11.292 c -2.891,-6.092 0,-10.542 0,-10.542 0,0 5.782,0.959 6.746,2.875 1.218,2.424 -6.746,7.667 -6.746,7.667 z"
             id="path3431"
             style="fill:#3d3d3d;fill-opacity:1" /><path
             fill="#c1694f"
             d="M 14.929,4.373 C 10.702,2.789 7.722,0.75 7.722,0.75 c 0,0 -2.076,3.221 -0.928,7.926 0.446,2.137 1.94,4.195 3.904,4.662 C 13.335,13.965 18,13.289 18,9.375 18,6.68 16.926,5.123 14.929,4.373 Z m 6.142,0 c 4.227,-1.584 7.206,-3.623 7.206,-3.623 0,0 2.076,3.221 0.928,7.926 -0.445,2.137 -1.939,4.195 -3.902,4.662 C 22.665,13.965 18,13.289 18,9.375 18,6.68 19.074,5.123 21.071,4.373 Z"
             id="path3433"
             style="fill:#45a07a;fill-opacity:1" /><path
             fill="#ffd983"
             d="m 16.083,8.417 c 0,2.117 -1.716,3.833 -3.833,3.833 -2.117,0 -3.833,-1.716 -3.833,-3.833 0,-2.117 1.717,-3.833 3.833,-3.833 2.117,-10e-4 3.833,1.716 3.833,3.833 z m 11.5,0 c 0,2.117 -1.716,3.833 -3.833,3.833 -2.117,0 -3.833,-1.716 -3.833,-3.833 0,-2.117 1.716,-3.833 3.833,-3.833 2.117,0 3.833,1.716 3.833,3.833 z"
             id="path3435"
             style="fill:#c1c1c1;fill-opacity:1" /><path
             fill="#292f33"
             d="m 14.167,8.417 c 0,1.059 -0.858,1.917 -1.917,1.917 -1.059,0 -1.917,-0.858 -1.917,-1.917 0,-1.058 0.858,-1.917 1.917,-1.917 1.059,0 1.917,0.858 1.917,1.917 z m 11.5,0 c 0,1.059 -0.858,1.917 -1.917,1.917 -1.059,0 -1.917,-0.858 -1.917,-1.917 0,-1.058 0.858,-1.917 1.917,-1.917 1.059,0 1.917,0.858 1.917,1.917 z"
             id="path3437" /><path
             fill="#ffcc4d"
             d="m 20.875,12.729 c 0,2.382 -2.875,3.354 -2.875,3.354 0,0 -2.875,-0.973 -2.875,-3.354 0,-2.381 2.875,-3.354 2.875,-3.354 0,0 2.875,0.972 2.875,3.354 z"
             id="path3439"
             style="fill:#a6a6a6;fill-opacity:1" /><path
             fill="#f4900c"
             d="m 20.875,12.729 c 0,2.382 -2.875,3.354 -2.875,3.354 0,0 -2.875,-0.973 -2.875,-3.354 1.198,1.198 2.875,1.438 2.875,1.438 0,0 1.677,-0.24 2.875,-1.438 z"
             id="path3441"
             style="fill:#808080;fill-opacity:1" /></g></g></g></g></svg>
