<?xml version="1.0" encoding="UTF-8" standalone="no"?>
<!-- Created with Inkscape (http://www.inkscape.org/) -->

<svg
   width="2000"
   height="2250"
   viewBox="0 0 529.1666 595.31281"
   version="1.1"
   id="svg437"
   xml:space="preserve"
   inkscape:version="1.2.2 (b0a8486541, 2022-12-01)"
   sodipodi:docname="nth-root.svg"
   xmlns:inkscape="http://www.inkscape.org/namespaces/inkscape"
   xmlns:sodipodi="http://sodipodi.sourceforge.net/DTD/sodipodi-0.dtd"
   xmlns="http://www.w3.org/2000/svg"
   xmlns:svg="http://www.w3.org/2000/svg"><sodipodi:namedview
     id="namedview439"
     pagecolor="#ffffff"
     bordercolor="#000000"
     borderopacity="0.25"
     inkscape:showpageshadow="2"
     inkscape:pageopacity="0.0"
     inkscape:pagecheckerboard="0"
     inkscape:deskcolor="#d1d1d1"
     inkscape:document-units="mm"
     showgrid="false"
     showguides="true"
     inkscape:lockguides="false"
     inkscape:zoom="0.2102413"
     inkscape:cx="-1060.686"
     inkscape:cy="1296.1297"
     inkscape:window-width="1920"
     inkscape:window-height="1176"
     inkscape:window-x="0"
     inkscape:window-y="0"
     inkscape:window-maximized="1"
     inkscape:current-layer="g954"><inkscape:grid
       type="xygrid"
       id="grid5299"
       spacingx="6.6145825"
       spacingy="6.6145825"
       originx="0"
       originy="0" /><sodipodi:guide
       position="0,595.31282"
       orientation="0,2000"
       id="guide5327"
       inkscape:locked="false" /><sodipodi:guide
       position="529.1666,595.31282"
       orientation="3000,0"
       id="guide5329"
       inkscape:locked="false" /><sodipodi:guide
       position="529.1666,-198.43708"
       orientation="0,-2000"
       id="guide5331"
       inkscape:locked="false" /><sodipodi:guide
       position="0,-198.43708"
       orientation="-3000,0"
       id="guide5333"
       inkscape:locked="false" /></sodipodi:namedview><defs
     id="defs434" /><g
     inkscape:label="Layer 1"
     inkscape:groupmode="layer"
     id="layer1"><g
       id="g954"
       transform="matrix(9.2586619,0,0,9.2586619,115.09276,88.093584)"><g
         id="g3083"
         transform="translate(-0.14680058)"><g
           id="g851"
           transform="matrix(0.79513183,0,0,0.79513183,4.5314312,9.2790795)"><g
             id="g2920"
             transform="translate(2.4924689,-1.3599378)"><path
               fill="#d99e82"
               d="m 12.75,17.75 c 1.226,2.195 1.856,-1.361 9.312,-2.625 7.456,-1.264 13.729,4.454 13.859,5.413 C 36.053,21.496 31.474,30 26.459,30 H 10.75 c -4.143,0 -7.022,-7.224 -4,-11.438 0,0 4.5,-3.5 6,-0.812 z"
               id="path821"
               style="fill:#45a07a;fill-opacity:1" /><path
               fill="#c1694f"
               d="M 13.008,18.136 C 8.02,25.073 6.969,30 10.75,30 6.607,30 4.172,23.812 6.282,18.969 6.745,17.905 8.04,16.477 8.04,16.477 l 4.179,-0.008 c 0.162,0.32 0.599,1.365 0.789,1.667 z"
               id="path823"
               style="fill:#45a07a;fill-opacity:1" /><path
               fill="#e1e8ed"
               d="M 20.062,22.75 C 26.734,20.068 35.791,19.579 35.921,20.538 36.053,21.496 31.474,30 26.459,30 H 11.813 c -4.143,0 1.232,-4.429 8.249,-7.25 z"
               id="path825" /><path
               fill="#292f33"
               d="m 25.359,21.125 c 6,-1.312 10.468,-1.282 10.563,-0.587 0.079,0.578 -1.559,3.907 -3.973,6.454 2.204,-2.804 1.42,-6.113 -6.59,-5.867 z"
               id="path827" /><path
               fill="#3e721d"
               d="m 7.125,6.125 c 1.562,-4.938 10.44,-4.143 10.062,0.688 -0.378,4.829 -6.453,7.859 -4.179,11.323 -1.586,1.38 -5.016,0.913 -6.727,0.833 C 6.983,17.618 7.662,16.338 8.093,15.563 11.009,10.328 5.962,9.799 7.125,6.125 Z"
               id="path829"
               style="fill:#45a07a;fill-opacity:1" /><path
               fill="#ffcc4d"
               d="M 1.893,9.045 C 2.461,7.945 2.442,9.151 5.245,9.187 6.799,9.208 6.708,8.627 6.909,7.566 6.95,7.343 7.685,9.182 8.97,9.373 c 3.554,0.531 1.879,1.94 0,2.261 C 8.069,11.788 6.96,11.952 5.032,11.789 2.513,11.577 1.264,10.261 1.893,9.045 Z"
               id="path831"
               style="fill:#292f33;fill-opacity:1" /><path
               fill="#f5f8fa"
               d="m 12.502,16.625 c 0.044,0.625 0.506,1.511 0.506,1.511 -1.016,1.474 -5.643,3.017 -7.354,2.93 0.096,-0.628 0.283,-1.362 0.627,-2.097 1.844,-0.471 4.661,-1.071 6.221,-2.344 z"
               id="path833" /><path
               fill="#292f33"
               d="m 11.708,6.151 c 0,0.716 -0.58,1.296 -1.296,1.296 -0.716,0 -1.295,-0.58 -1.295,-1.296 0,-0.716 0.579,-1.295 1.295,-1.295 0.716,0 1.296,0.58 1.296,1.295 z"
               id="path835" /></g></g><path
           style="fill:#000000;fill-opacity:0;stroke:#45a07a;stroke-width:2.14326"
           d="M -1.714505,26.206329 1.8576,29.778434 5.429705,4.7736991 h 28.57684 v 3.572105"
           id="path907"
           sodipodi:nodetypes="ccccc" /></g><path
         style="opacity:1;fill:none;fill-opacity:1;stroke:#45a07a;stroke-width:2.14326;stroke-dasharray:none;stroke-dashoffset:0;stroke-opacity:1"
         d="M -8.858715,-2.3051347 V 29.8904 c 0,3.460139 2.3544412,5.141883 2.3544412,5.141883 l 19.0325328,13.594666 3.617761,2.584115 3.638266,-2.598761 18.692232,-13.351595 c 0,0 2.674237,-1.910169 2.674237,-5.367304 V -2.5555536 C 41.494129,-6.2827862 37.57865,-5.9426159 37.57865,-5.9426159 H -5.28661 c 0,0 -3.572105,-0.5340659 -3.572105,3.6374812 z"
         id="path5132"
         sodipodi:nodetypes="cccccccccccc" /></g></g></svg>
