<?xml version="1.0" encoding="UTF-8" standalone="no"?>
<!-- Created with Inkscape (http://www.inkscape.org/) -->

<svg
   width="2000"
   height="2250"
   viewBox="0 0 529.1666 595.31281"
   version="1.1"
   id="svg437"
   xml:space="preserve"
   inkscape:version="1.2.2 (b0a8486541, 2022-12-01)"
   sodipodi:docname="pro.svg"
   xmlns:inkscape="http://www.inkscape.org/namespaces/inkscape"
   xmlns:sodipodi="http://sodipodi.sourceforge.net/DTD/sodipodi-0.dtd"
   xmlns="http://www.w3.org/2000/svg"
   xmlns:svg="http://www.w3.org/2000/svg"><sodipodi:namedview
     id="namedview439"
     pagecolor="#ffffff"
     bordercolor="#000000"
     borderopacity="0.25"
     inkscape:showpageshadow="2"
     inkscape:pageopacity="0.0"
     inkscape:pagecheckerboard="0"
     inkscape:deskcolor="#d1d1d1"
     inkscape:document-units="mm"
     showgrid="false"
     showguides="true"
     inkscape:lockguides="false"
     inkscape:zoom="0.2102413"
     inkscape:cx="299.65568"
     inkscape:cy="1843.1203"
     inkscape:window-width="1920"
     inkscape:window-height="1176"
     inkscape:window-x="0"
     inkscape:window-y="0"
     inkscape:window-maximized="1"
     inkscape:current-layer="g954"><inkscape:grid
       type="xygrid"
       id="grid5299"
       spacingx="6.6145825"
       spacingy="6.6145825"
       originx="0"
       originy="0" /><sodipodi:guide
       position="0,595.31282"
       orientation="0,2000"
       id="guide5327"
       inkscape:locked="false" /><sodipodi:guide
       position="529.1666,595.31282"
       orientation="3000,0"
       id="guide5329"
       inkscape:locked="false" /><sodipodi:guide
       position="529.1666,-198.43708"
       orientation="0,-2000"
       id="guide5331"
       inkscape:locked="false" /><sodipodi:guide
       position="0,-198.43708"
       orientation="-3000,0"
       id="guide5333"
       inkscape:locked="false" /></sodipodi:namedview><defs
     id="defs434" /><g
     inkscape:label="Layer 1"
     inkscape:groupmode="layer"
     id="layer1"><g
       id="g954"
       transform="matrix(9.2586619,0,0,9.2586619,115.09276,88.093584)"><g
         id="g4728"
         transform="matrix(0.80756438,0,0,0.80756438,1.2219825,3.7531212)"><circle
           fill="#ffcc4d"
           cx="18"
           cy="18"
           r="18"
           id="circle930"
           style="fill:#45a07a;fill-opacity:1" /><path
           fill="#664500"
           d="M 27.335,23.629 C 27.157,23.468 26.891,23.458 26.7,23.6 26.661,23.629 22.778,26.5 18,26.5 13.234,26.5 9.338,23.629 9.3,23.6 9.109,23.458 8.843,23.47 8.665,23.629 8.488,23.789 8.448,24.053 8.571,24.257 8.7,24.472 11.788,29.5 18,29.5 c 6.212,0 9.301,-5.028 9.429,-5.243 0.123,-0.205 0.084,-0.468 -0.094,-0.628 z"
           id="path932" /><path
           fill="#65471b"
           d="m 18,26.591 c -0.148,0 -0.291,-0.011 -0.438,-0.016 v 4.516 h 0.875 V 26.574 C 18.292,26.579 18.148,26.591 18,26.591 Z"
           id="path934"
           style="fill:#808080;fill-opacity:1" /><path
           fill="#ffffff"
           d="m 22,26 c 0.016,-0.004 -1.45,0.378 -2.446,0.486 -0.366,0.042 -0.737,0.076 -1.117,0.089 v 4.517 H 20 c 1.1,0 2,-0.9 2,-2 z m -8,0 c -0.016,-0.004 1.45,0.378 2.446,0.486 0.366,0.042 0.737,0.076 1.117,0.089 v 4.517 H 16 c -1.1,0 -2,-0.9 -2,-2 z"
           id="path936" /><path
           fill="#65471b"
           d="M 27.335,23.629 C 27.157,23.468 26.891,23.458 26.7,23.6 c -0.03,0.022 -2.259,1.668 -5.411,2.47 -0.443,0.113 -1.864,0.43 -3.286,0.431 -1.424,0 -2.849,-0.318 -3.292,-0.431 C 11.559,25.268 9.33,23.622 9.3,23.6 9.11,23.458 8.843,23.468 8.665,23.629 c -0.178,0.16 -0.217,0.423 -0.094,0.628 0.097,0.162 1.885,3.067 5.429,4.481 v -1.829 c -0.016,-0.004 1.45,0.378 2.446,0.486 0.366,0.042 0.737,0.076 1.117,0.089 0.146,0.005 0.289,0.016 0.437,0.016 0.148,0 0.291,-0.011 0.438,-0.016 0.38,-0.013 0.751,-0.046 1.117,-0.089 0.996,-0.108 2.462,-0.49 2.446,-0.486 v 1.829 c 3.544,-1.414 5.332,-4.319 5.429,-4.481 0.122,-0.205 0.083,-0.468 -0.095,-0.628 z m -0.711,-9.605 c 0,1.714 -0.938,3.104 -2.096,3.104 -1.157,0 -2.096,-1.39 -2.096,-3.104 0,-1.714 0.938,-3.104 2.096,-3.104 1.158,0 2.096,1.39 2.096,3.104 z m -17.167,0 c 0,1.714 0.938,3.104 2.096,3.104 1.157,0 2.096,-1.39 2.096,-3.104 0,-1.714 -0.938,-3.104 -2.096,-3.104 -1.158,0 -2.096,1.39 -2.096,3.104 z"
           id="path938"
           style="fill:#808080;fill-opacity:1" /><path
           fill="#292f33"
           d="M 34.808,9.627 C 34.637,9.461 33.541,9.901 32.432,9.336 30.144,8.17 24.362,7.045 20.598,9.712 20.195,9.997 18.511,10.045 18.04,10.025 17.569,10.046 15.885,9.998 15.482,9.712 11.719,7.045 5.937,8.17 3.649,9.336 2.54,9.901 1.444,9.461 1.273,9.627 c -0.247,0.239 -0.247,1.196 0.001,1.436 0.246,0.239 1.477,0.515 1.722,1.232 0.247,0.718 0.249,4.958 2.213,6.424 1.839,1.372 6.129,1.785 8.848,0.238 2.372,-1.349 2.289,-4.189 2.724,-5.881 0.155,-0.603 0.592,-0.907 1.26,-0.907 0.668,0 1.105,0.304 1.26,0.907 0.435,1.691 0.351,4.532 2.724,5.881 2.719,1.546 7.009,1.133 8.847,-0.238 1.965,-1.465 1.967,-5.706 2.213,-6.424 0.245,-0.717 1.476,-0.994 1.722,-1.232 0.248,-0.24 0.249,-1.197 10e-4,-1.436 z"
           id="path940"
           style="fill:#000000;fill-opacity:1"
           sodipodi:nodetypes="ccccccccccccscccccc" /></g><path
         style="opacity:1;fill:none;fill-opacity:1;stroke:#45a07a;stroke-width:2.14326;stroke-dasharray:none;stroke-dashoffset:0;stroke-opacity:1"
         d="M -8.858715,-2.3051347 V 29.8904 c 0,3.460139 2.3544412,5.141883 2.3544412,5.141883 l 19.0325328,13.594666 3.617761,2.584115 3.638266,-2.598761 18.692232,-13.351595 c 0,0 2.674237,-1.910169 2.674237,-5.367304 V -2.5555536 C 41.494129,-6.2827862 37.57865,-5.9426159 37.57865,-5.9426159 H -5.28661 c 0,0 -3.572105,-0.5340659 -3.572105,3.6374812 z"
         id="path5132"
         sodipodi:nodetypes="cccccccccccc" /><g
         id="g8439"
         transform="translate(0.25127543)"><g
           id="g8434"><path
             fill="#ffac33"
             d="m 9.701186,40.251945 c -0.105073,0 -0.209692,-0.03187 -0.299741,-0.09651 l -2.1167008,-1.517992 -2.116692,1.517992 c -0.180282,0.12902 -0.422296,0.12902 -0.601577,-0.002 -0.17928,-0.12984 -0.254762,-0.360383 -0.187566,-0.570893 l 0.789416,-2.547839 -2.097698,-1.478175 c -0.178279,-0.131388 -0.252395,-0.362476 -0.184197,-0.573169 0.06829,-0.210238 0.264322,-0.353098 0.485486,-0.354646 l 2.598054,-0.0039 0.827202,-2.484613 c 0.07011,-0.210511 0.266144,-0.352096 0.487581,-0.352096 0.221437,0 0.417835,0.141767 0.487854,0.352096 l 0.81309,2.484613 2.6113368,0.0039 c 0.221984,0.0016 0.417836,0.144681 0.48576,0.354646 0.06829,0.210784 -0.0057,0.441781 -0.184197,0.573169 l -2.097698,1.478175 0.789416,2.547839 c 0.06738,0.21051 -0.0086,0.441053 -0.187384,0.570893 -0.09014,0.06646 -0.195943,0.09861 -0.301836,0.09861 z"
             id="path5561"
             style="fill:#45a07a;fill-opacity:1;stroke-width:0.260196" /></g><path
           fill="#ffac33"
           d="m 26.941654,40.251945 c -0.105073,0 -0.209692,-0.03187 -0.299741,-0.09651 l -2.116701,-1.517992 -2.116692,1.517992 c -0.180282,0.12902 -0.422296,0.12902 -0.601577,-0.002 -0.17928,-0.12984 -0.254762,-0.360383 -0.187566,-0.570893 l 0.789416,-2.547839 -2.097698,-1.478175 C 20.132816,35.42514 20.0587,35.194052 20.126898,34.983359 c 0.06829,-0.210238 0.264322,-0.353098 0.485486,-0.354646 l 2.598054,-0.0039 0.827202,-2.484613 c 0.07011,-0.210511 0.266144,-0.352096 0.487581,-0.352096 0.221437,0 0.417835,0.141767 0.487854,0.352096 l 0.81309,2.484613 2.611337,0.0039 c 0.221984,0.0016 0.417836,0.144681 0.48576,0.354646 0.06829,0.210784 -0.0057,0.441781 -0.184197,0.573169 l -2.097698,1.478175 0.789416,2.547839 c 0.06738,0.21051 -0.0086,0.441053 -0.187384,0.570893 -0.09014,0.06646 -0.195943,0.09861 -0.301836,0.09861 z"
           id="path5561-3"
           style="fill:#45a07a;fill-opacity:1;stroke-width:0.260196" /></g><path
         fill="#ffac33"
         d="m 18.572696,45.87814 c -0.105073,0 -0.209692,-0.03187 -0.299741,-0.09651 l -2.116701,-1.517992 -2.116692,1.517992 c -0.180282,0.12902 -0.422296,0.12902 -0.601577,-0.002 -0.17928,-0.12984 -0.254762,-0.360383 -0.187566,-0.570893 l 0.789416,-2.547839 -2.097698,-1.478175 c -0.178279,-0.131388 -0.252395,-0.362476 -0.184197,-0.573169 0.06829,-0.210238 0.264322,-0.353098 0.485486,-0.354646 l 2.598054,-0.0039 0.827202,-2.484613 c 0.07011,-0.210511 0.266144,-0.352096 0.487581,-0.352096 0.221437,0 0.417835,0.141767 0.487854,0.352096 l 0.81309,2.484613 2.611337,0.0039 c 0.221984,0.0016 0.417836,0.144681 0.48576,0.354646 0.06829,0.210784 -0.0057,0.441781 -0.184197,0.573169 l -2.097698,1.478175 0.789416,2.547839 c 0.06738,0.21051 -0.0086,0.441053 -0.187384,0.570893 -0.09014,0.06646 -0.195943,0.09861 -0.301836,0.09861 z"
         id="path5561-3-6"
         style="fill:#45a07a;fill-opacity:1;stroke-width:0.260196" /><g
         id="g8280"
         transform="matrix(1.1252625,0,0,1.1252625,-61.434034,13.213673)"><g
           id="g8285"
           transform="translate(50.599309,-14.856442)"><path
             fill="#292f33"
             d="m 32.104,3.511 -14,-3 c -0.068,-0.015 -0.14,-0.015 -0.209,0 l -14,3 C 3.671,3.559 3.508,3.754 3.5,3.983 3.493,4.212 3.642,4.417 3.863,4.481 L 8.807,5.894 C 8.615,6.489 8.5,7.176 8.5,8 c 0,2.29 3.285,3.5 9.5,3.5 6.215,0 9.5,-1.21 9.5,-3.5 0,-0.824 -0.115,-1.511 -0.307,-2.106 L 32.138,4.481 C 32.359,4.418 32.508,4.212 32.5,3.983 32.492,3.754 32.329,3.559 32.104,3.511 Z"
             id="path8254" /><path
             fill="#66757f"
             d="M 32.48,3.863 C 32.404,3.598 32.13,3.446 31.862,3.519 L 18,7.48 4.137,3.519 C 3.875,3.446 3.595,3.597 3.519,3.863 3.443,4.128 3.597,4.405 3.863,4.481 l 14,4 c 0.045,0.013 0.091,0.019 0.136,0.019 0.045,0 0.092,-0.006 0.137,-0.019 l 14,-4 C 32.403,4.405 32.557,4.128 32.48,3.863 Z"
             id="path8256" /><path
             fill="#ffcc4d"
             d="m 17.958,3.502 -12,1 C 5.932,4.504 5.5,4.559 5.5,5 v 6.095 C 5.201,11.281 5,11.835 5,13.5 5,15.985 5.448,18 6,18 6.552,18 7,15.985 7,13.5 7,11.835 6.799,11.281 6.5,11.095 V 5.46 L 18.042,4.498 C 18.316,4.475 18.521,4.234 18.498,3.958 18.475,3.683 18.23,3.476 17.958,3.502 Z"
             id="path8258"
             style="fill:#a8d9c5;fill-opacity:1" /></g></g></g></g></svg>
