<?xml version="1.0" encoding="UTF-8" standalone="no"?>
<!-- Created with Inkscape (http://www.inkscape.org/) -->

<svg
   width="2000"
   height="2250"
   viewBox="0 0 529.1666 595.31281"
   version="1.1"
   id="svg437"
   xml:space="preserve"
   inkscape:version="1.2.2 (b0a8486541, 2022-12-01)"
   sodipodi:docname="see-no-evil.svg"
   xmlns:inkscape="http://www.inkscape.org/namespaces/inkscape"
   xmlns:sodipodi="http://sodipodi.sourceforge.net/DTD/sodipodi-0.dtd"
   xmlns="http://www.w3.org/2000/svg"
   xmlns:svg="http://www.w3.org/2000/svg"><sodipodi:namedview
     id="namedview439"
     pagecolor="#ffffff"
     bordercolor="#000000"
     borderopacity="0.25"
     inkscape:showpageshadow="2"
     inkscape:pageopacity="0.0"
     inkscape:pagecheckerboard="0"
     inkscape:deskcolor="#d1d1d1"
     inkscape:document-units="mm"
     showgrid="false"
     showguides="true"
     inkscape:lockguides="false"
     inkscape:zoom="0.2973261"
     inkscape:cx="625.57576"
     inkscape:cy="1040.9446"
     inkscape:window-width="1920"
     inkscape:window-height="1176"
     inkscape:window-x="0"
     inkscape:window-y="0"
     inkscape:window-maximized="1"
     inkscape:current-layer="g954"><inkscape:grid
       type="xygrid"
       id="grid5299"
       spacingx="6.6145825"
       spacingy="6.6145825"
       originx="0"
       originy="0" /><sodipodi:guide
       position="0,595.31282"
       orientation="0,2000"
       id="guide5327"
       inkscape:locked="false" /><sodipodi:guide
       position="529.1666,595.31282"
       orientation="3000,0"
       id="guide5329"
       inkscape:locked="false" /><sodipodi:guide
       position="529.1666,-198.43708"
       orientation="0,-2000"
       id="guide5331"
       inkscape:locked="false" /><sodipodi:guide
       position="0,-198.43708"
       orientation="-3000,0"
       id="guide5333"
       inkscape:locked="false" /></sodipodi:namedview><defs
     id="defs434" /><g
     inkscape:label="Layer 1"
     inkscape:groupmode="layer"
     id="layer1"><g
       id="g954"
       transform="matrix(9.2586619,0,0,9.2586619,115.09276,88.093584)"><path
         style="opacity:1;fill:none;fill-opacity:1;stroke:#45a07a;stroke-width:2.14326;stroke-dasharray:none;stroke-dashoffset:0;stroke-opacity:1"
         d="M -8.858715,-2.3051347 V 29.8904 c 0,3.460139 2.3544412,5.141883 2.3544412,5.141883 l 19.0325328,13.594666 3.617761,2.584115 3.638266,-2.598761 18.692232,-13.351595 c 0,0 2.674237,-1.910169 2.674237,-5.367304 V -2.5555536 C 41.494129,-6.2827862 37.57865,-5.9426159 37.57865,-5.9426159 H -5.28661 c 0,0 -3.572105,-0.5340659 -3.572105,3.6374812 z"
         id="path5132"
         sodipodi:nodetypes="cccccccccccc" /><g
         id="g10297"
         transform="matrix(1.167278,0,0,1.1110921,-4.8536809,-1.6925342)"><path
           fill="#bf6952"
           d="m 18.985,35 h -1.97 c -6.5,0 -12.803,-4.982 -12.803,-11.956 0,-3.985 1.477,-5.978 1.477,-5.978 0,0 -0.492,-1.993 -0.492,-3.985 0,-5.978 6.303,-10.96 12.803,-10.96 6.5,0 12.803,5.978 12.803,10.96 0,1.993 -0.492,3.985 -0.492,3.985 0,0 1.477,1.993 1.477,5.978 C 31.788,30.018 25.485,35 18.985,35 Z"
           id="path10249"
           style="fill:#45a07a;fill-opacity:1" /><path
           fill="#d79e84"
           d="m 29.667,15.379 c 0,-3.807 -3.087,-6.894 -6.894,-6.894 -1.854,0 -3.534,0.736 -4.773,1.926 -1.239,-1.191 -2.919,-1.926 -4.773,-1.926 -3.807,0 -6.894,3.087 -6.894,6.894 0,2.309 1.14,4.348 2.882,5.599 -0.489,1.212 -0.761,2.546 -0.761,3.946 0,5.565 4.274,9.015 9.545,9.015 5.271,0 9.545,-3.45 9.545,-9.015 0,-1.401 -0.272,-2.734 -0.761,-3.946 1.744,-1.251 2.884,-3.29 2.884,-5.599 z"
           id="path10251"
           style="fill:#9cd5bd;fill-opacity:1" /><ellipse
           fill="#292f33"
           cx="13"
           cy="17"
           rx="2"
           ry="3"
           id="ellipse10253" /><ellipse
           fill="#292f33"
           cx="23"
           cy="17"
           rx="2"
           ry="3"
           id="ellipse10255" /><path
           fill="#642116"
           d="m 18,31.5 c 2.715,0 5.027,-1.38 5.895,-3.309 0.359,-0.798 -0.25,-1.691 -1.157,-1.691 h -9.476 c -0.907,0 -1.516,0.893 -1.157,1.691 0.868,1.929 3.18,3.309 5.895,3.309 z"
           id="path10257"
           style="fill:#000000;fill-opacity:0.769459" /><ellipse
           fill="#642116"
           cx="16.5"
           cy="22"
           rx="1"
           ry="1.061"
           id="ellipse10259"
           style="fill:#000000;fill-opacity:0.769459" /><circle
           fill="#642116"
           cx="19.5"
           cy="22"
           r="1"
           id="circle10261"
           style="fill:#000000;fill-opacity:0.769459" /><path
           fill="#bf6952"
           d="m 22.242,0.17 c 0,0 -5.303,-1.061 -7.424,2.121 -2.121,3.182 4.242,1.061 4.242,1.061 0,0 1.061,-3.182 3.182,-3.182 z"
           id="path10263"
           style="fill:#45a07a;fill-opacity:1" /><path
           fill="#9b3c07"
           d="m 9,31.997 c 0.125,0.659 1.781,1.409 1.781,1.409 L 10,18.996 8,24 c 0,0 0.875,7.337 1,7.997 z m 18,0 c -0.188,0.722 -1.75,1.378 -1.75,1.378 L 26.001,18.996 28,24 c 0,0 -0.812,7.275 -1,7.997 z"
           id="path10265"
           style="fill:#275b45;fill-opacity:1" /><path
           fill="#d79e84"
           d="m 30.608,15.053 c 0,0 0.2,-2.476 1.197,-3.542 1.302,-1.393 2.87,-0.314 2.749,1.64 -0.44,7.086 -1.996,9.033 -4.018,10.196 -2.021,1.164 -4.789,0.946 -7.718,-1.872 -2.929,-2.818 -4.158,-4.554 -4.508,-5.797 -0.35,-1.244 0.956,-2.254 2.07,-1.621 1.002,0.569 2.51,2.308 2.51,2.308 0,0 -1.947,-2.696 -2.223,-3.738 -0.382,-1.441 1.322,-2.301 2.247,-1.507 0.912,0.783 2.792,3.156 2.792,3.156 0,0 -1.606,-2.464 -1.754,-3.651 -0.146,-1.172 1.239,-2.208 2.463,-1.186 1.223,1.023 3.189,3.971 4.193,5.614 z m -25.216,0 c 0,0 -0.2,-2.476 -1.197,-3.542 -1.302,-1.393 -2.87,-0.314 -2.749,1.64 0.44,7.086 1.996,9.033 4.018,10.196 2.021,1.164 4.789,0.946 7.718,-1.872 2.929,-2.818 4.158,-4.554 4.508,-5.797 0.35,-1.244 -0.956,-2.254 -2.07,-1.621 -1.002,0.569 -2.51,2.308 -2.51,2.308 0,0 1.947,-2.696 2.223,-3.738 0.382,-1.441 -1.322,-2.301 -2.247,-1.507 -0.912,0.783 -2.792,3.156 -2.792,3.156 0,0 1.606,-2.464 1.754,-3.651 C 12.194,9.453 10.809,8.417 9.585,9.439 8.361,10.461 6.396,13.41 5.392,15.053 Z"
           id="path10269"
           style="fill:#9cd5bd;fill-opacity:1" /><path
           fill="#bf6952"
           d="m 28.082,24.512 c -1.83,0 -3.774,-0.909 -5.611,-2.676 -2.795,-2.688 -4.227,-4.546 -4.642,-6.022 -0.217,-0.771 0.034,-1.554 0.656,-2.041 0.592,-0.464 1.362,-0.54 2.036,-0.207 -0.157,-0.308 -0.278,-0.588 -0.337,-0.81 -0.226,-0.851 0.09,-1.666 0.823,-2.126 0.726,-0.456 1.623,-0.412 2.233,0.112 0.084,0.073 0.176,0.157 0.272,0.251 -0.026,-0.107 -0.046,-0.209 -0.058,-0.305 -0.097,-0.776 0.307,-1.553 1.004,-1.934 0.727,-0.396 1.577,-0.281 2.275,0.302 1.12,0.936 2.682,3.211 3.59,4.611 0.187,-0.834 0.523,-1.864 1.115,-2.498 0.681,-0.729 1.536,-0.972 2.292,-0.647 0.879,0.379 1.398,1.423 1.321,2.659 -0.436,7.031 -1.956,9.269 -4.268,10.6 -0.847,0.49 -1.76,0.731 -2.701,0.731 z M 19.66,14.362 c -0.197,0 -0.391,0.066 -0.559,0.198 -0.301,0.236 -0.417,0.603 -0.311,0.983 0.355,1.26 1.785,3.083 4.373,5.572 2.474,2.378 5.002,3.017 7.123,1.799 1.658,-0.955 3.315,-2.498 3.768,-9.794 0.057,-0.921 -0.32,-1.507 -0.72,-1.679 -0.355,-0.156 -0.771,-0.008 -1.165,0.412 -0.717,0.768 -1.011,2.6 -1.063,3.241 -0.018,0.216 -0.172,0.396 -0.383,0.446 -0.21,0.051 -0.429,-0.042 -0.542,-0.226 -0.963,-1.575 -2.907,-4.504 -4.088,-5.49 -0.52,-0.434 -0.947,-0.307 -1.155,-0.192 -0.341,0.186 -0.538,0.56 -0.491,0.932 0.11,0.88 1.248,2.781 1.678,3.44 0.146,0.224 0.09,0.522 -0.127,0.679 -0.215,0.156 -0.518,0.115 -0.684,-0.095 -0.019,-0.023 -1.861,-2.345 -2.727,-3.087 -0.313,-0.27 -0.765,-0.202 -1.05,-0.024 -0.17,0.107 -0.548,0.42 -0.388,1.023 0.207,0.781 1.618,2.845 2.145,3.574 0.156,0.217 0.115,0.519 -0.095,0.685 -0.209,0.164 -0.513,0.138 -0.688,-0.064 -0.403,-0.466 -1.618,-1.77 -2.378,-2.201 -0.153,-0.089 -0.314,-0.132 -0.473,-0.132 z"
           id="path10271"
           style="fill:#45a07a;fill-opacity:1" /><path
           fill="#bf6952"
           d="m 7.918,24.512 c -0.942,0 -1.854,-0.241 -2.704,-0.73 -2.311,-1.331 -3.831,-3.568 -4.267,-10.6 -0.077,-1.236 0.442,-2.28 1.322,-2.659 0.75,-0.324 1.609,-0.083 2.291,0.647 0.592,0.633 0.929,1.663 1.116,2.498 0.908,-1.399 2.468,-3.674 3.59,-4.611 0.699,-0.585 1.549,-0.699 2.274,-0.302 0.698,0.38 1.102,1.158 1.004,1.934 -0.012,0.096 -0.032,0.198 -0.058,0.305 0.097,-0.094 0.188,-0.179 0.273,-0.251 0.608,-0.522 1.507,-0.567 2.232,-0.112 0.734,0.46 1.05,1.275 0.825,2.126 -0.059,0.222 -0.18,0.502 -0.336,0.811 0.672,-0.332 1.443,-0.257 2.034,0.207 0.623,0.487 0.874,1.27 0.657,2.041 -0.416,1.478 -1.848,3.335 -4.643,6.022 -1.836,1.765 -3.78,2.674 -5.61,2.674 z M 2.954,11.381 c -0.1,0 -0.196,0.02 -0.29,0.06 -0.399,0.172 -0.776,0.758 -0.719,1.679 0.453,7.296 2.11,8.839 3.768,9.794 2.121,1.221 4.648,0.581 7.122,-1.799 2.588,-2.488 4.018,-4.311 4.373,-5.572 0.107,-0.38 -0.009,-0.748 -0.31,-0.983 -0.303,-0.238 -0.689,-0.264 -1.032,-0.068 -0.761,0.433 -1.975,1.735 -2.379,2.201 -0.176,0.202 -0.48,0.229 -0.688,0.064 -0.209,-0.166 -0.251,-0.468 -0.095,-0.685 0.526,-0.729 1.938,-2.793 2.146,-3.574 0.16,-0.603 -0.219,-0.916 -0.389,-1.023 -0.284,-0.179 -0.734,-0.248 -1.049,0.024 -0.865,0.743 -2.707,3.064 -2.725,3.087 -0.166,0.208 -0.467,0.251 -0.684,0.095 C 9.786,14.525 9.73,14.226 9.876,14.002 10.305,13.343 11.444,11.441 11.553,10.562 11.599,10.19 11.402,9.816 11.062,9.63 10.854,9.517 10.426,9.389 9.908,9.822 8.878,10.682 7.067,13.271 5.819,15.312 5.706,15.497 5.49,15.59 5.277,15.538 5.067,15.488 4.912,15.308 4.894,15.092 4.842,14.451 4.548,12.619 3.831,11.851 3.539,11.542 3.237,11.381 2.954,11.381 Z"
           id="path10273"
           style="fill:#45a07a;fill-opacity:1" /><path
           fill="#9b3c07"
           d="m 25.988,9.758 c 0.036,0.026 0.069,0.035 0.106,0.066 1.181,0.986 3.125,3.915 4.088,5.49 0.09,0.146 0.249,0.21 0.414,0.215 0.216,-1.052 0.273,-2.283 0.266,-3.455 -0.247,0.518 -0.425,1.087 -0.538,1.593 -0.908,-1.4 -2.47,-3.675 -3.59,-4.611 -0.666,-0.557 -1.468,-0.672 -2.171,-0.34 0.672,0.226 1.12,0.615 1.425,1.042 z M 5.818,15.314 C 7.066,13.272 8.877,10.684 9.907,9.824 9.976,9.766 10.038,9.742 10.103,9.703 10.402,9.303 10.834,8.944 11.462,8.727 10.754,8.378 9.94,8.492 9.265,9.057 8.143,9.994 6.582,12.269 5.675,13.668 5.569,13.196 5.408,12.667 5.187,12.178 5.184,13.319 5.244,14.506 5.452,15.527 5.6,15.507 5.738,15.445 5.818,15.314 Z"
           id="path10275"
           style="fill:#275b45;fill-opacity:1" /></g></g></g></svg>
