<?xml version="1.0" encoding="UTF-8" standalone="no"?>
<!-- Created with Inkscape (http://www.inkscape.org/) -->

<svg
   width="2000"
   height="2250"
   viewBox="0 0 529.1666 595.31281"
   version="1.1"
   id="svg437"
   xml:space="preserve"
   inkscape:version="1.2.2 (b0a8486541, 2022-12-01)"
   sodipodi:docname="star.svg"
   inkscape:export-filename="nth-root.png"
   inkscape:export-xdpi="48"
   inkscape:export-ydpi="48"
   xmlns:inkscape="http://www.inkscape.org/namespaces/inkscape"
   xmlns:sodipodi="http://sodipodi.sourceforge.net/DTD/sodipodi-0.dtd"
   xmlns="http://www.w3.org/2000/svg"
   xmlns:svg="http://www.w3.org/2000/svg"><sodipodi:namedview
     id="namedview439"
     pagecolor="#ffffff"
     bordercolor="#000000"
     borderopacity="0.25"
     inkscape:showpageshadow="2"
     inkscape:pageopacity="0.0"
     inkscape:pagecheckerboard="0"
     inkscape:deskcolor="#d1d1d1"
     inkscape:document-units="mm"
     showgrid="false"
     showguides="true"
     inkscape:lockguides="false"
     inkscape:zoom="0.10512065"
     inkscape:cx="-1693.2924"
     inkscape:cy="1127.2761"
     inkscape:window-width="1920"
     inkscape:window-height="1176"
     inkscape:window-x="0"
     inkscape:window-y="0"
     inkscape:window-maximized="1"
     inkscape:current-layer="g954"><inkscape:grid
       type="xygrid"
       id="grid5299"
       spacingx="6.6145825"
       spacingy="6.6145825"
       originx="0"
       originy="0" /><sodipodi:guide
       position="0,595.31282"
       orientation="0,2000"
       id="guide5327"
       inkscape:locked="false" /><sodipodi:guide
       position="529.1666,595.31282"
       orientation="3000,0"
       id="guide5329"
       inkscape:locked="false" /><sodipodi:guide
       position="529.1666,-198.43708"
       orientation="0,-2000"
       id="guide5331"
       inkscape:locked="false" /><sodipodi:guide
       position="0,-198.43708"
       orientation="-3000,0"
       id="guide5333"
       inkscape:locked="false" /></sodipodi:namedview><defs
     id="defs434" /><g
     inkscape:label="Layer 1"
     inkscape:groupmode="layer"
     id="layer1"><g
       id="g954"
       transform="matrix(9.2586619,0,0,9.2586619,115.09276,88.093584)"><path
         style="opacity:1;fill:none;fill-opacity:1;stroke:#45a07a;stroke-width:2.14326;stroke-dasharray:none;stroke-dashoffset:0;stroke-opacity:1"
         d="M -8.858715,-2.3051347 V 29.8904 c 0,3.460139 2.3544412,5.141883 2.3544412,5.141883 l 19.0325328,13.594666 3.617761,2.584115 3.638266,-2.598761 18.692232,-13.351595 c 0,0 2.674237,-1.910169 2.674237,-5.367304 V -2.5555536 C 41.494129,-6.2827862 37.57865,-5.9426159 37.57865,-5.9426159 H -5.28661 c 0,0 -3.572105,-0.5340659 -3.572105,3.6374812 z"
         id="path5132"
         sodipodi:nodetypes="cccccccccccc" /><g
         id="g5146"
         transform="matrix(1.0059596,0,0,1.0059596,-2.8413021,0.42425306)"><g
           id="g6353"
           transform="translate(0.0953979)" /></g><path
         fill="#ffac33"
         d="M 7.0243353,3.1908545 C 6.7101523,3.5231813 6.5045169,4.1671453 6.5665895,4.6210715 L 6.850532,6.6713781 C 6.9132415,7.1256222 6.6273889,7.3357138 6.2151629,7.1389914 L 4.3526661,6.2489656 C 3.9404402,6.0516064 3.2678277,6.0544714 2.8565567,6.2546996 L 1.0020177,7.1593681 C 0.59106513,7.3595923 0.30393952,7.1511192 0.36314728,6.6971659 L 0.63149193,4.6443122 C 0.6906997,4.1900681 0.48028937,3.5480144 0.16355987,3.2179158 L -1.2669753,1.725622 C -1.5840231,1.3955234 -1.4754756,1.056511 -1.0266428,0.97279302 L 1.0010628,0.59462665 C 1.4498956,0.5109107 1.9929514,0.11141595 2.2084549,-0.29317094 L 3.1796527,-2.1193789 c 0.2148668,-0.4045859 0.5694764,-0.4055406 0.7872081,-0.00282 l 0.985204,1.81856872 C 5.1704331,0.09904969 5.7160355,0.4944039 6.1661415,0.57430325 L 8.1963937,0.93745869 C 8.6458635,1.0176739 8.7569577,1.3557327 8.4427744,1.6883784 Z"
         id="path5134-0"
         style="fill:#14784d;fill-opacity:1;stroke-width:0.318321" /><path
         fill="#ffac33"
         d="m 32.163932,3.1908545 c -0.314183,0.3323268 -0.519818,0.9762908 -0.457745,1.430217 l 0.283942,2.0503066 C 32.05284,7.1256222 31.766986,7.3357138 31.35476,7.1389914 L 29.492263,6.2489656 c -0.412225,-0.1973592 -1.084838,-0.1944942 -1.49611,0.00573 L 26.141614,7.1593681 C 25.730662,7.3595923 25.443537,7.1511192 25.502745,6.6971659 L 25.771088,4.6443122 C 25.830299,4.1900681 25.619887,3.5480144 25.303157,3.2179158 L 23.872621,1.725622 C 23.555574,1.3955234 23.664121,1.056511 24.112954,0.97279304 L 26.14066,0.59462667 c 0.448833,-0.0837159 0.991888,-0.4832107 1.207392,-0.88779759 l 0.971197,-1.82620798 c 0.214867,-0.4045859 0.569477,-0.4055406 0.787209,-0.00282 l 0.985204,1.81856874 c 0.218367,0.40267657 0.763971,0.79803078 1.214076,0.87793013 l 2.030253,0.36315544 c 0.449469,0.0802152 0.560563,0.41827399 0.24638,0.75091969 z"
         id="path5134-0-6"
         style="fill:#14784d;fill-opacity:1;stroke-width:0.318321" /><path
         fill="#ffac33"
         d="m 1.9891882,23.419082 c -0.3141831,0.332327 -0.5198185,0.976291 -0.4577459,1.430217 l 0.2839425,2.050307 c 0.06271,0.454244 -0.2231431,0.664335 -0.635369,0.467613 l -1.8624969,-0.890026 c -0.4122258,-0.197359 -1.0848384,-0.194494 -1.4961094,0.0057 l -1.8545388,0.904669 c -0.4109526,0.200224 -0.6980782,-0.0082 -0.6388705,-0.462202 l 0.2683446,-2.052854 c 0.059208,-0.454244 -0.1512025,-1.096298 -0.467932,-1.426397 L -6.3021224,21.95385 c -0.3170479,-0.330099 -0.2085003,-0.669111 0.2403325,-0.752829 l 2.0277056,-0.378167 c 0.4488327,-0.08372 0.9918885,-0.48321 1.207392,-0.887797 l 0.9711978,-1.826208 c 0.2148668,-0.404586 0.5694765,-0.405541 0.7872082,-0.0028 l 0.98520391,1.818569 c 0.21836828,0.402676 0.76397069,0.798031 1.21407679,0.87793 l 2.0302522,0.363155 c 0.4494695,0.08022 0.5605635,0.418274 0.2463805,0.75092 z"
         id="path5134-0-2"
         style="fill:#14784d;fill-opacity:1;stroke-width:0.318321" /><path
         fill="#ffac33"
         d="m 37.19908,23.529741 c -0.314184,0.332327 -0.519819,0.976291 -0.457746,1.430217 l 0.283942,2.050306 c 0.06271,0.454244 -0.223143,0.664336 -0.635369,0.467614 L 34.52741,26.587852 c -0.412226,-0.197359 -1.084838,-0.194494 -1.496109,0.0057 l -1.854539,0.904668 c -0.410953,0.200225 -0.698078,-0.0082 -0.63887,-0.462202 l 0.268344,-2.052854 c 0.05921,-0.454244 -0.151202,-1.096297 -0.467931,-1.426396 l -1.430536,-1.492294 c -0.317048,-0.330098 -0.208501,-0.669111 0.240332,-0.752829 l 2.027706,-0.378166 c 0.448833,-0.08372 0.991888,-0.483211 1.207392,-0.887798 l 0.971198,-1.826208 c 0.214867,-0.404586 0.569477,-0.40554 0.787208,-0.0028 l 0.985204,1.818568 c 0.218368,0.402677 0.763971,0.798031 1.214077,0.87793 l 2.030251,0.363156 c 0.44947,0.08022 0.560564,0.418274 0.246381,0.75092 z"
         id="path5134-0-61"
         style="fill:#14784d;fill-opacity:1;stroke-width:0.318321" /><path
         fill="#ffac33"
         d="m 19.594134,36.043289 c -0.314183,0.332326 -0.519818,0.97629 -0.457746,1.430217 l 0.283942,2.050306 c 0.06271,0.454244 -0.223143,0.664336 -0.635369,0.467614 L 16.922464,39.1014 c -0.412225,-0.197359 -1.084838,-0.194494 -1.496109,0.0057 l -1.854539,0.904668 c -0.410953,0.200224 -0.698078,-0.0082 -0.63887,-0.462202 l 0.268344,-2.052854 c 0.05921,-0.454244 -0.151202,-1.096297 -0.467931,-1.426396 l -1.430536,-1.492294 c -0.317047,-0.330098 -0.2085,-0.669111 0.240333,-0.752829 l 2.027705,-0.378166 c 0.448833,-0.08372 0.991889,-0.483211 1.207392,-0.887798 l 0.971198,-1.826208 c 0.214867,-0.404586 0.569477,-0.40554 0.787209,-0.0028 l 0.985203,1.818568 c 0.218368,0.402677 0.763971,0.798031 1.214077,0.87793 l 2.030253,0.363156 c 0.449468,0.08022 0.560563,0.418274 0.246379,0.75092 z"
         id="path5134-0-8"
         style="fill:#14784d;fill-opacity:1;stroke-width:0.318321" /><path
         fill="#ffac33"
         d="m 27.020866,18.167368 c -0.992883,1.050222 -1.642732,3.085279 -1.44657,4.519777 l 0.897316,6.479386 c 0.198174,1.435504 -0.705178,2.099437 -2.007896,1.477754 l -5.885869,-2.812663 c -1.302718,-0.623695 -3.428311,-0.614641 -4.72801,0.01811 L 7.9891156,30.708667 C 6.6904217,31.341415 5.7830462,30.682512 5.9701547,29.248013 L 6.8181786,22.76058 C 7.0052871,21.325076 6.3403478,19.296055 5.339418,18.252875 L 0.81863554,13.536936 C -0.18330022,12.493756 0.15973201,11.422409 1.5781351,11.157842 L 7.9860977,9.9627619 C 9.4045007,9.6981946 11.120668,8.4357153 11.801703,7.1571406 l 3.069183,-5.7711902 c 0.679022,-1.27857466 1.799661,-1.28159254 2.487738,-0.00905 l 3.113445,5.7470471 c 0.690088,1.2725389 2.414303,2.5219408 3.836729,2.7744366 l 6.416011,1.1477999 c 1.420415,0.253502 1.771495,1.321831 0.778613,2.373059 z"
         id="path5134"
         style="fill:#24d489;fill-opacity:1;stroke-width:1.00596" /></g></g></svg>
