<?xml version="1.0" encoding="UTF-8" standalone="no"?>
<!-- Created with Inkscape (http://www.inkscape.org/) -->

<svg
   width="2000"
   height="2250"
   viewBox="0 0 529.1666 595.31281"
   version="1.1"
   id="svg437"
   xml:space="preserve"
   inkscape:version="1.2.2 (b0a8486541, 2022-12-01)"
   sodipodi:docname="third.svg"
   xmlns:inkscape="http://www.inkscape.org/namespaces/inkscape"
   xmlns:sodipodi="http://sodipodi.sourceforge.net/DTD/sodipodi-0.dtd"
   xmlns="http://www.w3.org/2000/svg"
   xmlns:svg="http://www.w3.org/2000/svg"><sodipodi:namedview
     id="namedview439"
     pagecolor="#ffffff"
     bordercolor="#000000"
     borderopacity="0.25"
     inkscape:showpageshadow="2"
     inkscape:pageopacity="0.0"
     inkscape:pagecheckerboard="0"
     inkscape:deskcolor="#d1d1d1"
     inkscape:document-units="mm"
     showgrid="false"
     showguides="true"
     inkscape:lockguides="false"
     inkscape:zoom="0.2102413"
     inkscape:cx="-252.09129"
     inkscape:cy="2066.6729"
     inkscape:window-width="1920"
     inkscape:window-height="1176"
     inkscape:window-x="0"
     inkscape:window-y="0"
     inkscape:window-maximized="1"
     inkscape:current-layer="g2856"><inkscape:grid
       type="xygrid"
       id="grid5299"
       spacingx="6.6145825"
       spacingy="6.6145825"
       originx="0"
       originy="0" /><sodipodi:guide
       position="0,595.31282"
       orientation="0,2000"
       id="guide5327"
       inkscape:locked="false" /><sodipodi:guide
       position="529.1666,595.31282"
       orientation="3000,0"
       id="guide5329"
       inkscape:locked="false" /><sodipodi:guide
       position="529.1666,-198.43708"
       orientation="0,-2000"
       id="guide5331"
       inkscape:locked="false" /><sodipodi:guide
       position="0,-198.43708"
       orientation="-3000,0"
       id="guide5333"
       inkscape:locked="false" /></sodipodi:namedview><defs
     id="defs434" /><g
     inkscape:label="Layer 1"
     inkscape:groupmode="layer"
     id="layer1"><g
       id="g954"
       transform="matrix(9.2586619,0,0,9.2586619,115.09276,88.093584)"><path
         style="opacity:1;fill:none;fill-opacity:1;stroke:#45a07a;stroke-width:2.14326;stroke-dasharray:none;stroke-dashoffset:0;stroke-opacity:1"
         d="M -8.858715,-2.3051347 V 29.8904 c 0,3.460139 2.3544412,5.141883 2.3544412,5.141883 l 19.0325328,13.594666 3.617761,2.584115 3.638266,-2.598761 18.692232,-13.351595 c 0,0 2.674237,-1.910169 2.674237,-5.367304 V -2.5555536 C 41.494129,-6.2827862 37.57865,-5.9426159 37.57865,-5.9426159 H -5.28661 c 0,0 -3.572105,-0.5340659 -3.572105,3.6374812 z"
         id="path5132"
         sodipodi:nodetypes="cccccccccccc" /><g
         id="g1709"
         transform="matrix(1.1668189,0,0,1.1668189,-4.8465842,-1.1155376)"><g
           id="g2856"><path
             fill="#55acee"
             d="M 18,8 11,0 H 0 l 14,17 11.521,-4.75 z"
             id="path1691"
             style="fill:#45a07a;fill-opacity:1" /><path
             fill="#3b88c3"
             d="m 25,0 -7,8 5.39,7.312 1.227,-1.489 L 36,0 Z"
             id="path1693"
             style="fill:#367a5e;fill-opacity:1" /><path
             fill="#ffac33"
             d="m 23.204999,16.026 c 0.08,-0.217 0.131,-0.448 0.131,-0.693 0,-1.104 -0.896,-2 -2,-2 h -6.667 c -1.105,0 -2,0.896 -2,2 0,0.245 0.05,0.476 0.131,0.693 C 9.5419991,17.852 7.3359991,21.333 7.3359991,25.333 7.3349991,31.224 12.110999,36 18.001999,36 c 5.891,0 10.667,-4.776 10.667,-10.667 0,-4 -2.206,-7.481 -5.464,-9.307 z"
             id="path1695"
             style="fill:#a06614;fill-opacity:1" /><g
             aria-label="3"
             id="text535"
             style="font-weight:bold;font-size:17.9602px;-inkscape-font-specification:'sans-serif Bold';text-align:center;text-anchor:middle;fill:#214b3a;stroke-width:1.83687;stroke-linecap:round"><path
               d="m 22.061504,21.618165 q 0,1.329055 -0.808209,2.119303 -0.790248,0.790249 -1.957661,1.077612 v 0.05388 q 1.544577,0.179602 2.334825,0.93393 0.808209,0.754329 0.808209,2.029503 0,1.113532 -0.556766,2.011542 -0.538806,0.88005 -1.688258,1.400896 -1.131493,0.502885 -2.927513,0.502885 -2.083383,0 -3.699801,-0.700448 v -2.298905 q 0.826169,0.413085 1.724179,0.628607 0.91597,0.215522 1.688259,0.215522 1.454776,0 2.029502,-0.502885 0.592687,-0.502886 0.592687,-1.418856 0,-0.538806 -0.269403,-0.89801 -0.269403,-0.377164 -0.951891,-0.556766 -0.664527,-0.197562 -1.86786,-0.197562 h -0.969851 v -2.083383 h 0.987811 q 1.185373,0 1.79602,-0.215523 0.628607,-0.233482 0.844129,-0.610647 0.233483,-0.395124 0.233483,-0.89801 0,-0.682487 -0.431045,-1.059651 -0.413085,-0.395125 -1.400896,-0.395125 -0.91597,0 -1.598457,0.323284 -0.664528,0.305323 -1.131493,0.610647 L 13.58429,19.822145 q 0.754329,-0.538806 1.7601,-0.89801 1.023731,-0.359204 2.424627,-0.359204 1.975622,0 3.125074,0.808209 1.167413,0.790249 1.167413,2.245025 z"
               id="path2125" /></g></g></g></g></g></svg>
